<?xml version="1.0" encoding="UTF-8" standalone="no"?>
<!-- Created with Inkscape (http://www.inkscape.org/) -->

<svg
   xmlns:dc="http://purl.org/dc/elements/1.1/"
   xmlns:cc="http://creativecommons.org/ns#"
   xmlns:rdf="http://www.w3.org/1999/02/22-rdf-syntax-ns#"
   xmlns:svg="http://www.w3.org/2000/svg"
   xmlns="http://www.w3.org/2000/svg"
   xmlns:sodipodi="http://sodipodi.sourceforge.net/DTD/sodipodi-0.dtd"
   xmlns:inkscape="http://www.inkscape.org/namespaces/inkscape"
   width="128"
   height="128"
   viewBox="0 0 33.866665 33.866667"
   version="1.1"
   id="svg8"
   inkscape:version="0.92.2 5c3e80d, 2017-08-06"
   sodipodi:docname="grid.svg">
  <defs
     id="defs2" />
  <sodipodi:namedview
     id="base"
     pagecolor="#ffffff"
     bordercolor="#666666"
     borderopacity="1.0"
     inkscape:pageopacity="0.0"
     inkscape:pageshadow="2"
     inkscape:zoom="5.6568542"
     inkscape:cx="45.390119"
     inkscape:cy="54.926069"
     inkscape:document-units="mm"
     inkscape:current-layer="layer1"
     showgrid="true"
     units="px"
     inkscape:window-width="1920"
     inkscape:window-height="1182"
     inkscape:window-x="0"
     inkscape:window-y="18"
     inkscape:window-maximized="0"
     inkscape:snap-global="true"
     inkscape:snap-bbox="false"
     inkscape:snap-bbox-midpoints="true"
     showguides="false">
    <inkscape:grid
       type="xygrid"
       id="grid4485"
       empspacing="8"
       spacingx="1.0583333"
       spacingy="1.0583333" />
  </sodipodi:namedview>
  <metadata
     id="metadata5">
    <rdf:RDF>
      <cc:Work
         rdf:about="">
        <dc:format>image/svg+xml</dc:format>
        <dc:type
           rdf:resource="http://purl.org/dc/dcmitype/StillImage" />
        <dc:title></dc:title>
      </cc:Work>
    </rdf:RDF>
  </metadata>
  <g
     inkscape:label="Layer 1"
     inkscape:groupmode="layer"
     id="layer1"
     transform="translate(0,-263.13332)">
    <path
       style="color:#000000;font-style:normal;font-variant:normal;font-weight:normal;font-stretch:normal;font-size:medium;line-height:normal;font-family:sans-serif;font-variant-ligatures:normal;font-variant-position:normal;font-variant-caps:normal;font-variant-numeric:normal;font-variant-alternates:normal;font-feature-settings:normal;text-indent:0;text-align:start;text-decoration:none;text-decoration-line:none;text-decoration-style:solid;text-decoration-color:#000000;letter-spacing:normal;word-spacing:normal;text-transform:none;writing-mode:lr-tb;direction:ltr;text-orientation:mixed;dominant-baseline:auto;baseline-shift:baseline;text-anchor:start;white-space:normal;shape-padding:0;clip-rule:nonzero;display:inline;overflow:visible;visibility:visible;opacity:0.5;isolation:auto;mix-blend-mode:normal;color-interpolation:sRGB;color-interpolation-filters:linearRGB;solid-color:#000000;solid-opacity:1;vector-effect:none;fill:#1a237e;fill-opacity:1;fill-rule:nonzero;stroke:none;stroke-width:1.99999988;stroke-linecap:square;stroke-linejoin:miter;stroke-miterlimit:2;stroke-dasharray:1.99999986, 3.99999976;stroke-dashoffset:0.26458332;stroke-opacity:1;color-rendering:auto;image-rendering:auto;shape-rendering:auto;text-rendering:auto;enable-background:accumulate"
       d="M 2.9960938 3.0019531 L 2.9960938 4 L 2.9960938 5.0039062 L 2.9960938 6 L 4.9980469 6 L 4.9980469 5.0039062 L 6.0019531 5.0039062 L 6.0019531 3.0019531 L 4.9980469 3.0019531 L 4.0019531 3.0019531 L 2.9960938 3.0019531 z M 8.0019531 3.0019531 L 8.0019531 5.0039062 L 8.9980469 5.0039062 L 10.998047 5.0039062 L 12.003906 5.0039062 L 12.003906 3.0019531 L 10.998047 3.0019531 L 8.9980469 3.0019531 L 8.0019531 3.0019531 z M 14.003906 3.0019531 L 14.003906 5.0039062 L 15 5.0039062 L 17 5.0039062 L 17.996094 5.0039062 L 17.996094 3.0019531 L 17 3.0019531 L 15 3.0019531 L 14.003906 3.0019531 z M 19.998047 3.0019531 L 19.998047 5.0039062 L 21.001953 5.0039062 L 23.001953 5.0039062 L 23.998047 5.0039062 L 23.998047 3.0019531 L 23.001953 3.0019531 L 21.001953 3.0019531 L 19.998047 3.0019531 z M 25.998047 3.0019531 L 25.998047 5.0039062 L 27.003906 5.0039062 L 29.003906 5.0039062 L 30 5.0039062 L 30 3.0019531 L 29.003906 3.0019531 L 27.003906 3.0019531 L 25.998047 3.0019531 z M 32 3.0019531 L 32 5.0039062 L 32.996094 5.0039062 L 34.998047 5.0039062 L 36.001953 5.0039062 L 36.001953 3.0019531 L 34.998047 3.0019531 L 32.996094 3.0019531 L 32 3.0019531 z M 38.001953 3.0019531 L 38.001953 5.0039062 L 38.998047 5.0039062 L 40.998047 5.0039062 L 42.003906 5.0039062 L 42.003906 3.0019531 L 40.998047 3.0019531 L 38.998047 3.0019531 L 38.001953 3.0019531 z M 44.003906 3.0019531 L 44.003906 5.0039062 L 45 5.0039062 L 47 5.0039062 L 47.996094 5.0039062 L 47.996094 3.0019531 L 47 3.0019531 L 45 3.0019531 L 44.003906 3.0019531 z M 49.998047 3.0019531 L 49.998047 5.0039062 L 51.001953 5.0039062 L 53.001953 5.0039062 L 53.998047 5.0039062 L 53.998047 3.0019531 L 53.001953 3.0019531 L 51.001953 3.0019531 L 49.998047 3.0019531 z M 55.998047 3.0019531 L 55.998047 5.0039062 L 57.003906 5.0039062 L 59.003906 5.0039062 L 60 5.0039062 L 60 3.0019531 L 59.003906 3.0019531 L 57.003906 3.0019531 L 55.998047 3.0019531 z M 62 3.0019531 L 62 5.0039062 L 62.996094 5.0039062 L 64.998047 5.0039062 L 66.001953 5.0039062 L 66.001953 3.0019531 L 64.998047 3.0019531 L 62.996094 3.0019531 L 62 3.0019531 z M 68.001953 3.0019531 L 68.001953 5.0039062 L 68.998047 5.0039062 L 70.998047 5.0039062 L 72.003906 5.0039062 L 72.003906 3.0019531 L 70.998047 3.0019531 L 68.998047 3.0019531 L 68.001953 3.0019531 z M 74.003906 3.0019531 L 74.003906 5.0039062 L 75 5.0039062 L 77 5.0039062 L 77.996094 5.0039062 L 77.996094 3.0019531 L 77 3.0019531 L 75 3.0019531 L 74.003906 3.0019531 z M 79.998047 3.0019531 L 79.998047 5.0039062 L 81.001953 5.0039062 L 83.001953 5.0039062 L 83.998047 5.0039062 L 83.998047 3.0019531 L 83.001953 3.0019531 L 81.001953 3.0019531 L 79.998047 3.0019531 z M 85.998047 3.0019531 L 85.998047 5.0039062 L 87.003906 5.0039062 L 89.003906 5.0039062 L 90 5.0039062 L 90 3.0019531 L 89.003906 3.0019531 L 87.003906 3.0019531 L 85.998047 3.0019531 z M 92 3.0019531 L 92 5.0039062 L 92.996094 5.0039062 L 94.998047 5.0039062 L 96.001953 5.0039062 L 96.001953 3.0019531 L 94.998047 3.0019531 L 92.996094 3.0019531 L 92 3.0019531 z M 98.001953 3.0019531 L 98.001953 5.0039062 L 98.998047 5.0039062 L 100.99805 5.0039062 L 102.00391 5.0039062 L 102.00391 3.0019531 L 100.99805 3.0019531 L 98.998047 3.0019531 L 98.001953 3.0019531 z M 104.00391 3.0019531 L 104.00391 5.0039062 L 105 5.0039062 L 107 5.0039062 L 107.99609 5.0039062 L 107.99609 3.0019531 L 107 3.0019531 L 105 3.0019531 L 104.00391 3.0019531 z M 109.99805 3.0019531 L 109.99805 5.0039062 L 111.00195 5.0039062 L 113.00195 5.0039062 L 113.99805 5.0039062 L 113.99805 3.0019531 L 113.00195 3.0019531 L 111.00195 3.0019531 L 109.99805 3.0019531 z M 115.99805 3.0019531 L 115.99805 5.0039062 L 117.00391 5.0039062 L 119.00391 5.0039062 L 120 5.0039062 L 120 3.0019531 L 119.00391 3.0019531 L 117.00391 3.0019531 L 115.99805 3.0019531 z M 122 3.0019531 L 122 5.0039062 L 122.99609 5.0039062 L 122.99609 6 L 124.99805 6 L 124.99805 5.0039062 L 124.99805 3.0019531 L 124.00195 3.0019531 L 122.99609 3.0019531 L 122 3.0019531 z M 2.9960938 8 L 2.9960938 8.9960938 L 2.9960938 10.998047 L 2.9960938 12.001953 L 4.9980469 12.001953 L 4.9980469 10.998047 L 4.9980469 8.9960938 L 4.9980469 8 L 2.9960938 8 z M 122.99609 8 L 122.99609 8.9960938 L 122.99609 10.998047 L 122.99609 12.001953 L 124.99805 12.001953 L 124.99805 10.998047 L 124.99805 8.9960938 L 124.99805 8 L 122.99609 8 z M 2.9960938 14.001953 L 2.9960938 14.998047 L 2.9960938 16.998047 L 2.9960938 18.001953 L 4.9980469 18.001953 L 4.9980469 16.998047 L 4.9980469 14.998047 L 4.9980469 14.001953 L 2.9960938 14.001953 z M 122.99609 14.001953 L 122.99609 14.998047 L 122.99609 16.998047 L 122.99609 18.001953 L 124.99805 18.001953 L 124.99805 16.998047 L 124.99805 14.998047 L 124.99805 14.001953 L 122.99609 14.001953 z M 2.9960938 20.003906 L 2.9960938 21 L 2.9960938 23 L 2.9960938 23.996094 L 4.9980469 23.996094 L 4.9980469 23 L 4.9980469 21 L 4.9980469 20.003906 L 2.9960938 20.003906 z M 122.99609 20.003906 L 122.99609 21 L 122.99609 23 L 122.99609 23.996094 L 124.99805 23.996094 L 124.99805 23 L 124.99805 21 L 124.99805 20.003906 L 122.99609 20.003906 z M 2.9960938 25.998047 L 2.9960938 27.001953 L 2.9960938 29.001953 L 2.9960938 29.998047 L 4.9980469 29.998047 L 4.9980469 29.001953 L 4.9980469 27.001953 L 4.9980469 25.998047 L 2.9960938 25.998047 z M 122.99609 25.998047 L 122.99609 27.001953 L 122.99609 29.001953 L 122.99609 29.998047 L 124.99805 29.998047 L 124.99805 29.001953 L 124.99805 27.001953 L 124.99805 25.998047 L 122.99609 25.998047 z M 2.9960938 31.998047 L 2.9960938 33.001953 L 2.9960938 35.003906 L 2.9960938 36 L 4.9980469 36 L 4.9980469 35.003906 L 4.9980469 33.001953 L 4.9980469 31.998047 L 2.9960938 31.998047 z M 122.99609 31.998047 L 122.99609 33.001953 L 122.99609 35.003906 L 122.99609 36 L 124.99805 36 L 124.99805 35.003906 L 124.99805 33.001953 L 124.99805 31.998047 L 122.99609 31.998047 z M 2.9960938 38 L 2.9960938 38.996094 L 2.9960938 40.998047 L 2.9960938 42.001953 L 4.9980469 42.001953 L 4.9980469 40.998047 L 4.9980469 38.996094 L 4.9980469 38 L 2.9960938 38 z M 122.99609 38 L 122.99609 38.996094 L 122.99609 40.998047 L 122.99609 42.001953 L 124.99805 42.001953 L 124.99805 40.998047 L 124.99805 38.996094 L 124.99805 38 L 122.99609 38 z M 2.9960938 44.001953 L 2.9960938 44.998047 L 2.9960938 46.998047 L 2.9960938 48.001953 L 4.9980469 48.001953 L 4.9980469 46.998047 L 4.9980469 44.998047 L 4.9980469 44.001953 L 2.9960938 44.001953 z M 122.99609 44.001953 L 122.99609 44.998047 L 122.99609 46.998047 L 122.99609 48.001953 L 124.99805 48.001953 L 124.99805 46.998047 L 124.99805 44.998047 L 124.99805 44.001953 L 122.99609 44.001953 z M 2.9960938 50.003906 L 2.9960938 51 L 2.9960938 53 L 2.9960938 53.996094 L 4.9980469 53.996094 L 4.9980469 53 L 4.9980469 51 L 4.9980469 50.003906 L 2.9960938 50.003906 z M 122.99609 50.003906 L 122.99609 51 L 122.99609 53 L 122.99609 53.996094 L 124.99805 53.996094 L 124.99805 53 L 124.99805 51 L 124.99805 50.003906 L 122.99609 50.003906 z M 2.9960938 55.998047 L 2.9960938 57.001953 L 2.9960938 59.001953 L 2.9960938 59.998047 L 4.9980469 59.998047 L 4.9980469 59.001953 L 4.9980469 57.001953 L 4.9980469 55.998047 L 2.9960938 55.998047 z M 122.99609 55.998047 L 122.99609 57.001953 L 122.99609 59.001953 L 122.99609 59.998047 L 124.99805 59.998047 L 124.99805 59.001953 L 124.99805 57.001953 L 124.99805 55.998047 L 122.99609 55.998047 z M 2.9960938 61.998047 L 2.9960938 63.001953 L 2.9960938 65.003906 L 2.9960938 66 L 4.9980469 66 L 4.9980469 65.003906 L 4.9980469 63.001953 L 4.9980469 61.998047 L 2.9960938 61.998047 z M 122.99609 61.998047 L 122.99609 63.001953 L 122.99609 65.003906 L 122.99609 66 L 124.99805 66 L 124.99805 65.003906 L 124.99805 63.001953 L 124.99805 61.998047 L 122.99609 61.998047 z M 2.9960938 68 L 2.9960938 68.996094 L 2.9960938 70.998047 L 2.9960938 72.001953 L 4.9980469 72.001953 L 4.9980469 70.998047 L 4.9980469 68.996094 L 4.9980469 68 L 2.9960938 68 z M 122.99609 68 L 122.99609 68.996094 L 122.99609 70.998047 L 122.99609 72.001953 L 124.99805 72.001953 L 124.99805 70.998047 L 124.99805 68.996094 L 124.99805 68 L 122.99609 68 z M 2.9960938 74.001953 L 2.9960938 74.998047 L 2.9960938 76.998047 L 2.9960938 78.001953 L 4.9980469 78.001953 L 4.9980469 76.998047 L 4.9980469 74.998047 L 4.9980469 74.001953 L 2.9960938 74.001953 z M 122.99609 74.001953 L 122.99609 74.998047 L 122.99609 76.998047 L 122.99609 78.001953 L 124.99805 78.001953 L 124.99805 76.998047 L 124.99805 74.998047 L 124.99805 74.001953 L 122.99609 74.001953 z M 2.9960938 80.003906 L 2.9960938 81 L 2.9960938 83 L 2.9960938 83.996094 L 4.9980469 83.996094 L 4.9980469 83 L 4.9980469 81 L 4.9980469 80.003906 L 2.9960938 80.003906 z M 122.99609 80.003906 L 122.99609 81 L 122.99609 83 L 122.99609 83.996094 L 124.99805 83.996094 L 124.99805 83 L 124.99805 81 L 124.99805 80.003906 L 122.99609 80.003906 z M 2.9960938 85.998047 L 2.9960938 87.001953 L 2.9960938 89.001953 L 2.9960938 89.998047 L 4.9980469 89.998047 L 4.9980469 89.001953 L 4.9980469 87.001953 L 4.9980469 85.998047 L 2.9960938 85.998047 z M 122.99609 85.998047 L 122.99609 87.001953 L 122.99609 89.001953 L 122.99609 89.998047 L 124.99805 89.998047 L 124.99805 89.001953 L 124.99805 87.001953 L 124.99805 85.998047 L 122.99609 85.998047 z M 2.9960938 91.998047 L 2.9960938 93.001953 L 2.9960938 95.003906 L 2.9960938 96 L 4.9980469 96 L 4.9980469 95.003906 L 4.9980469 93.001953 L 4.9980469 91.998047 L 2.9960938 91.998047 z M 122.99609 91.998047 L 122.99609 93.001953 L 122.99609 95.003906 L 122.99609 96 L 124.99805 96 L 124.99805 95.003906 L 124.99805 93.001953 L 124.99805 91.998047 L 122.99609 91.998047 z M 2.9960938 98 L 2.9960938 98.996094 L 2.9960938 100.99805 L 2.9960938 102.00195 L 4.9980469 102.00195 L 4.9980469 100.99805 L 4.9980469 98.996094 L 4.9980469 98 L 2.9960938 98 z M 122.99609 98 L 122.99609 98.996094 L 122.99609 100.99805 L 122.99609 102.00195 L 124.99805 102.00195 L 124.99805 100.99805 L 124.99805 98.996094 L 124.99805 98 L 122.99609 98 z M 2.9960938 104.00195 L 2.9960938 104.99805 L 2.9960938 106.99805 L 2.9960938 108.00195 L 4.9980469 108.00195 L 4.9980469 106.99805 L 4.9980469 104.99805 L 4.9980469 104.00195 L 2.9960938 104.00195 z M 122.99609 104.00195 L 122.99609 104.99805 L 122.99609 106.99805 L 122.99609 108.00195 L 124.99805 108.00195 L 124.99805 106.99805 L 124.99805 104.99805 L 124.99805 104.00195 L 122.99609 104.00195 z M 2.9960938 110.00391 L 2.9960938 111 L 2.9960938 113 L 2.9960938 113.99609 L 4.9980469 113.99609 L 4.9980469 113 L 4.9980469 111 L 4.9980469 110.00391 L 2.9960938 110.00391 z M 122.99609 110.00391 L 122.99609 111 L 122.99609 113 L 122.99609 113.99609 L 124.99805 113.99609 L 124.99805 113 L 124.99805 111 L 124.99805 110.00391 L 122.99609 110.00391 z M 2.9960938 115.99805 L 2.9960938 117.00195 L 2.9960938 119.00195 L 2.9960938 119.99805 L 4.9980469 119.99805 L 4.9980469 119.00195 L 4.9980469 117.00195 L 4.9980469 115.99805 L 2.9960938 115.99805 z M 122.99609 115.99805 L 122.99609 117.00195 L 122.99609 119.00195 L 122.99609 119.99805 L 124.99805 119.99805 L 124.99805 119.00195 L 124.99805 117.00195 L 124.99805 115.99805 L 122.99609 115.99805 z M 2.9960938 121.99805 L 2.9960938 123.00195 L 2.9960938 124 L 2.9960938 125.00391 L 4.0019531 125.00391 L 4.9980469 125.00391 L 6.0019531 125.00391 L 6.0019531 123.00195 L 4.9980469 123.00195 L 4.9980469 121.99805 L 2.9960938 121.99805 z M 122.99609 121.99805 L 122.99609 123.00195 L 122 123.00195 L 122 125.00391 L 122.99609 125.00391 L 124.00195 125.00391 L 124.99805 125.00391 L 124.99805 123.00195 L 124.99805 121.99805 L 122.99609 121.99805 z M 8.0019531 123.00195 L 8.0019531 125.00391 L 8.9980469 125.00391 L 10.998047 125.00391 L 12.003906 125.00391 L 12.003906 123.00195 L 10.998047 123.00195 L 8.9980469 123.00195 L 8.0019531 123.00195 z M 14.003906 123.00195 L 14.003906 125.00391 L 15 125.00391 L 17 125.00391 L 17.996094 125.00391 L 17.996094 123.00195 L 17 123.00195 L 15 123.00195 L 14.003906 123.00195 z M 19.998047 123.00195 L 19.998047 125.00391 L 21.001953 125.00391 L 23.001953 125.00391 L 23.998047 125.00391 L 23.998047 123.00195 L 23.001953 123.00195 L 21.001953 123.00195 L 19.998047 123.00195 z M 25.998047 123.00195 L 25.998047 125.00391 L 27.003906 125.00391 L 29.003906 125.00391 L 30 125.00391 L 30 123.00195 L 29.003906 123.00195 L 27.003906 123.00195 L 25.998047 123.00195 z M 32 123.00195 L 32 125.00391 L 32.996094 125.00391 L 34.998047 125.00391 L 36.001953 125.00391 L 36.001953 123.00195 L 34.998047 123.00195 L 32.996094 123.00195 L 32 123.00195 z M 38.001953 123.00195 L 38.001953 125.00391 L 38.998047 125.00391 L 40.998047 125.00391 L 42.003906 125.00391 L 42.003906 123.00195 L 40.998047 123.00195 L 38.998047 123.00195 L 38.001953 123.00195 z M 44.003906 123.00195 L 44.003906 125.00391 L 45 125.00391 L 47 125.00391 L 47.996094 125.00391 L 47.996094 123.00195 L 47 123.00195 L 45 123.00195 L 44.003906 123.00195 z M 49.998047 123.00195 L 49.998047 125.00391 L 51.001953 125.00391 L 53.001953 125.00391 L 53.998047 125.00391 L 53.998047 123.00195 L 53.001953 123.00195 L 51.001953 123.00195 L 49.998047 123.00195 z M 55.998047 123.00195 L 55.998047 125.00391 L 57.003906 125.00391 L 59.003906 125.00391 L 60 125.00391 L 60 123.00195 L 59.003906 123.00195 L 57.003906 123.00195 L 55.998047 123.00195 z M 62 123.00195 L 62 125.00391 L 62.996094 125.00391 L 64.998047 125.00391 L 66.001953 125.00391 L 66.001953 123.00195 L 64.998047 123.00195 L 62.996094 123.00195 L 62 123.00195 z M 68.001953 123.00195 L 68.001953 125.00391 L 68.998047 125.00391 L 70.998047 125.00391 L 72.003906 125.00391 L 72.003906 123.00195 L 70.998047 123.00195 L 68.998047 123.00195 L 68.001953 123.00195 z M 74.003906 123.00195 L 74.003906 125.00391 L 75 125.00391 L 77 125.00391 L 77.996094 125.00391 L 77.996094 123.00195 L 77 123.00195 L 75 123.00195 L 74.003906 123.00195 z M 79.998047 123.00195 L 79.998047 125.00391 L 81.001953 125.00391 L 83.001953 125.00391 L 83.998047 125.00391 L 83.998047 123.00195 L 83.001953 123.00195 L 81.001953 123.00195 L 79.998047 123.00195 z M 85.998047 123.00195 L 85.998047 125.00391 L 87.003906 125.00391 L 89.003906 125.00391 L 90 125.00391 L 90 123.00195 L 89.003906 123.00195 L 87.003906 123.00195 L 85.998047 123.00195 z M 92 123.00195 L 92 125.00391 L 92.996094 125.00391 L 94.998047 125.00391 L 96.001953 125.00391 L 96.001953 123.00195 L 94.998047 123.00195 L 92.996094 123.00195 L 92 123.00195 z M 98.001953 123.00195 L 98.001953 125.00391 L 98.998047 125.00391 L 100.99805 125.00391 L 102.00391 125.00391 L 102.00391 123.00195 L 100.99805 123.00195 L 98.998047 123.00195 L 98.001953 123.00195 z M 104.00391 123.00195 L 104.00391 125.00391 L 105 125.00391 L 107 125.00391 L 107.99609 125.00391 L 107.99609 123.00195 L 107 123.00195 L 105 123.00195 L 104.00391 123.00195 z M 109.99805 123.00195 L 109.99805 125.00391 L 111.00195 125.00391 L 113.00195 125.00391 L 113.99805 125.00391 L 113.99805 123.00195 L 113.00195 123.00195 L 111.00195 123.00195 L 109.99805 123.00195 z M 115.99805 123.00195 L 115.99805 125.00391 L 117.00391 125.00391 L 119.00391 125.00391 L 120 125.00391 L 120 123.00195 L 119.00391 123.00195 L 117.00391 123.00195 L 115.99805 123.00195 z "
       transform="matrix(0.26458333,0,0,0.26458333,0,263.13332)"
       id="path2335" />
  </g>
</svg>
