<?xml version="1.0" encoding="UTF-8" standalone="no"?>
<!-- Created with Inkscape (http://www.inkscape.org/) -->

<svg
   xmlns:dc="http://purl.org/dc/elements/1.1/"
   xmlns:cc="http://creativecommons.org/ns#"
   xmlns:rdf="http://www.w3.org/1999/02/22-rdf-syntax-ns#"
   xmlns:svg="http://www.w3.org/2000/svg"
   xmlns="http://www.w3.org/2000/svg"
   xmlns:sodipodi="http://sodipodi.sourceforge.net/DTD/sodipodi-0.dtd"
   xmlns:inkscape="http://www.inkscape.org/namespaces/inkscape"
   width="128"
   height="128"
   viewBox="0 0 33.866665 33.866667"
   version="1.1"
   id="svg8"
   inkscape:version="0.92.2 5c3e80d, 2017-08-06"
   sodipodi:docname="guess_water.svg">
  <defs
     id="defs2" />
  <sodipodi:namedview
     id="base"
     pagecolor="#ffffff"
     bordercolor="#666666"
     borderopacity="1.0"
     inkscape:pageopacity="0.0"
     inkscape:pageshadow="2"
     inkscape:zoom="4"
     inkscape:cx="101.42887"
     inkscape:cy="44.046752"
     inkscape:document-units="mm"
     inkscape:current-layer="layer1"
     showgrid="true"
     units="px"
     inkscape:window-width="1920"
     inkscape:window-height="1182"
     inkscape:window-x="0"
     inkscape:window-y="18"
     inkscape:window-maximized="0"
     inkscape:snap-global="true"
     inkscape:snap-bbox="false"
     inkscape:snap-bbox-midpoints="true"
     showguides="false">
    <inkscape:grid
       type="xygrid"
       id="grid4485"
       empspacing="8"
       spacingx="2.1166666"
       spacingy="2.1166666" />
  </sodipodi:namedview>
  <metadata
     id="metadata5">
    <rdf:RDF>
      <cc:Work
         rdf:about="">
        <dc:format>image/svg+xml</dc:format>
        <dc:type
           rdf:resource="http://purl.org/dc/dcmitype/StillImage" />
        <dc:title></dc:title>
      </cc:Work>
    </rdf:RDF>
  </metadata>
  <g
     inkscape:label="Layer 1"
     inkscape:groupmode="layer"
     id="layer1"
     transform="translate(0,-263.13332)">
    <rect
       style="opacity:1;fill:#ffffff;fill-opacity:1;stroke:none;stroke-width:0.52916664;stroke-linecap:butt;stroke-linejoin:miter;stroke-miterlimit:2;stroke-dasharray:none;stroke-dashoffset:0;stroke-opacity:1"
       id="rect9520"
       width="29.633331"
       height="29.633327"
       x="2.1166666"
       y="265.25" />
    <path
       style="opacity:1;fill:#90caf9;fill-opacity:1;stroke:none;stroke-width:1.99999988;stroke-linecap:butt;stroke-linejoin:miter;stroke-miterlimit:2;stroke-dasharray:none;stroke-dashoffset:0;stroke-opacity:1"
       d="M 22 8 L 44 16 L 40 8 L 22 8 z "
       transform="matrix(0.26458333,0,0,0.26458333,0,263.13332)"
       id="path9242" />
    <path
       style="opacity:1;fill:#64b5f6;fill-opacity:1;stroke:none;stroke-width:1.99999988;stroke-linecap:butt;stroke-linejoin:miter;stroke-miterlimit:2;stroke-dasharray:none;stroke-dashoffset:0;stroke-opacity:1"
       d="M 8 8 L 8 31 L 44 16 L 22 8 L 8 8 z "
       transform="matrix(0.26458333,0,0,0.26458333,0,263.13332)"
       id="path9244" />
    <path
       style="opacity:1;fill:#90caf9;fill-opacity:1;stroke:none;stroke-width:1.99999988;stroke-linecap:butt;stroke-linejoin:miter;stroke-miterlimit:2;stroke-dasharray:none;stroke-dashoffset:0;stroke-opacity:1"
       d="M 61.599609 8 L 44 16 L 80 24 L 84.572266 8 L 61.599609 8 z "
       transform="matrix(0.26458333,0,0,0.26458333,0,263.13332)"
       id="path9246" />
    <path
       style="opacity:1;fill:#64b5f6;fill-opacity:1;stroke:none;stroke-width:1.99999988;stroke-linecap:butt;stroke-linejoin:miter;stroke-miterlimit:2;stroke-dasharray:none;stroke-dashoffset:0;stroke-opacity:1"
       d="M 40 8 L 44 16 L 61.599609 8 L 40 8 z "
       transform="matrix(0.26458333,0,0,0.26458333,0,263.13332)"
       id="path9248" />
    <path
       style="opacity:1;fill:#64b5f6;fill-opacity:1;stroke:none;stroke-width:1.99999988;stroke-linecap:butt;stroke-linejoin:miter;stroke-miterlimit:2;stroke-dasharray:none;stroke-dashoffset:0;stroke-opacity:1"
       d="M 84.572266 8 L 80 24 L 108 20 L 98 8 L 84.572266 8 z "
       transform="matrix(0.26458333,0,0,0.26458333,0,263.13332)"
       id="path9250" />
    <path
       style="opacity:1;fill:#64b5f6;fill-opacity:1;stroke:none;stroke-width:1.99999988;stroke-linecap:butt;stroke-linejoin:miter;stroke-miterlimit:2;stroke-dasharray:none;stroke-dashoffset:0;stroke-opacity:1"
       d="M 120 8 L 108 20 L 120 32 L 120 8 z "
       transform="matrix(0.26458333,0,0,0.26458333,0,263.13332)"
       id="path9252" />
    <path
       style="opacity:1;fill:#90caf9;fill-opacity:1;stroke:none;stroke-width:1.99999988;stroke-linecap:butt;stroke-linejoin:miter;stroke-miterlimit:2;stroke-dasharray:none;stroke-dashoffset:0;stroke-opacity:1"
       d="M 98 8 L 108 20 L 120 8 L 98 8 z "
       transform="matrix(0.26458333,0,0,0.26458333,0,263.13332)"
       id="path9254" />
    <path
       style="opacity:1;fill:#90caf9;fill-opacity:1;stroke:none;stroke-width:1.99999988;stroke-linecap:butt;stroke-linejoin:miter;stroke-miterlimit:2;stroke-dasharray:none;stroke-dashoffset:0;stroke-opacity:1"
       d="M 44 16 L 8 31 L 8 40.363281 L 40 52 L 44 16 z "
       transform="matrix(0.26458333,0,0,0.26458333,0,263.13332)"
       id="path9256" />
    <path
       style="opacity:1;fill:#bbdefb;fill-opacity:1;stroke:none;stroke-width:1.99999988;stroke-linecap:butt;stroke-linejoin:miter;stroke-miterlimit:2;stroke-dasharray:none;stroke-dashoffset:0;stroke-opacity:1"
       d="M 8 40.363281 L 8 66.222656 L 40 52 L 8 40.363281 z "
       transform="matrix(0.26458333,0,0,0.26458333,0,263.13332)"
       id="path9258" />
    <path
       style="opacity:1;fill:#bbdefb;fill-opacity:1;stroke:none;stroke-width:0.52916664;stroke-linecap:butt;stroke-linejoin:miter;stroke-miterlimit:2;stroke-dasharray:none;stroke-dashoffset:0;stroke-opacity:1"
       d="m 11.641666,267.36665 9.525,2.11667 -10.583333,7.40833 z"
       id="path9260"
       inkscape:connector-curvature="0" />
    <path
       style="opacity:1;fill:#90caf9;fill-opacity:1;stroke:none;stroke-width:0.52916664;stroke-linecap:butt;stroke-linejoin:miter;stroke-miterlimit:2;stroke-dasharray:none;stroke-dashoffset:0;stroke-opacity:1"
       d="m 10.583333,276.89165 10.583333,-7.40833 -2.116667,11.64167 z"
       id="path9262"
       inkscape:connector-curvature="0" />
    <path
       style="opacity:1;fill:#90caf9;fill-opacity:1;stroke:none;stroke-width:0.52916664;stroke-linecap:butt;stroke-linejoin:miter;stroke-miterlimit:2;stroke-dasharray:none;stroke-dashoffset:0;stroke-opacity:1"
       d="M 21.166666,269.48332 28.575,268.42499 v 10.58333 z"
       id="path9264"
       inkscape:connector-curvature="0" />
    <path
       style="opacity:1;fill:#bbdefb;fill-opacity:1;stroke:none;stroke-width:0.52916664;stroke-linecap:butt;stroke-linejoin:miter;stroke-miterlimit:2;stroke-dasharray:none;stroke-dashoffset:0;stroke-opacity:1"
       d="M 21.166666,269.48332 19.049999,281.12499 28.575,279.00832 Z"
       id="path9266"
       inkscape:connector-curvature="0" />
    <path
       style="opacity:1;fill:#bbdefb;fill-opacity:1;stroke:none;stroke-width:1.99999988;stroke-linecap:butt;stroke-linejoin:miter;stroke-miterlimit:2;stroke-dasharray:none;stroke-dashoffset:0;stroke-opacity:1"
       d="M 108 20 L 108 60 L 120 42 L 120 32 L 108 20 z "
       transform="matrix(0.26458333,0,0,0.26458333,0,263.13332)"
       id="path9268" />
    <path
       style="opacity:1;fill:#90caf9;fill-opacity:1;stroke:none;stroke-width:1.99999988;stroke-linecap:butt;stroke-linejoin:miter;stroke-miterlimit:2;stroke-dasharray:none;stroke-dashoffset:0;stroke-opacity:1"
       d="M 120 42 L 108 60 L 120 64 L 120 42 z "
       transform="matrix(0.26458333,0,0,0.26458333,0,263.13332)"
       id="path9270" />
    <path
       style="opacity:1;fill:#bbdefb;fill-opacity:1;stroke:none;stroke-width:1.99999988;stroke-linecap:butt;stroke-linejoin:miter;stroke-miterlimit:2;stroke-dasharray:none;stroke-dashoffset:0;stroke-opacity:1"
       d="M 8 98.666016 L 8 104 L 32 120 L 32 104 L 8 98.666016 z "
       transform="matrix(0.26458333,0,0,0.26458333,0,263.13332)"
       id="path9272" />
    <path
       style="opacity:1;fill:#90caf9;fill-opacity:1;stroke:none;stroke-width:1.99999988;stroke-linecap:butt;stroke-linejoin:miter;stroke-miterlimit:2;stroke-dasharray:none;stroke-dashoffset:0;stroke-opacity:1"
       d="M 8 104 L 8 120 L 32 120 L 8 104 z "
       transform="matrix(0.26458333,0,0,0.26458333,0,263.13332)"
       id="path9274" />
    <path
       style="opacity:1;fill:#90caf9;fill-opacity:1;stroke:none;stroke-width:1.99999988;stroke-linecap:butt;stroke-linejoin:miter;stroke-miterlimit:2;stroke-dasharray:none;stroke-dashoffset:0;stroke-opacity:1"
       d="M 64 92 L 32 120 L 85 120 L 64 92 z "
       transform="matrix(0.26458333,0,0,0.26458333,0,263.13332)"
       id="path9276" />
    <path
       style="opacity:1;fill:#e3f2fd;fill-opacity:1;stroke:none;stroke-width:0.52916664;stroke-linecap:butt;stroke-linejoin:miter;stroke-miterlimit:2;stroke-dasharray:none;stroke-dashoffset:0;stroke-opacity:1"
       d="m 8.4666659,294.88332 v -4.23333 l 8.4666671,-3.175 z"
       id="path9278"
       inkscape:connector-curvature="0" />
    <path
       style="opacity:1;fill:#90caf9;fill-opacity:1;stroke:none;stroke-width:1.99999988;stroke-linecap:butt;stroke-linejoin:miter;stroke-miterlimit:2;stroke-dasharray:none;stroke-dashoffset:0;stroke-opacity:1"
       d="M 108 100 L 91.333984 120 L 120 120 L 120 116.80078 L 108 100 z "
       transform="matrix(0.26458333,0,0,0.26458333,0,263.13332)"
       id="path9280" />
    <path
       style="opacity:1;fill:#bbdefb;fill-opacity:1;stroke:none;stroke-width:1.99999988;stroke-linecap:butt;stroke-linejoin:miter;stroke-miterlimit:2;stroke-dasharray:none;stroke-dashoffset:0;stroke-opacity:1"
       d="M 64 92 L 85 120 L 91.333984 120 L 108 100 L 64 92 z "
       transform="matrix(0.26458333,0,0,0.26458333,0,263.13332)"
       id="path9282" />
    <path
       style="opacity:1;fill:#bbdefb;fill-opacity:1;stroke:none;stroke-width:1.99999988;stroke-linecap:butt;stroke-linejoin:miter;stroke-miterlimit:2;stroke-dasharray:none;stroke-dashoffset:0;stroke-opacity:1"
       d="M 120 97 L 108 100 L 120 116.80078 L 120 97 z "
       transform="matrix(0.26458333,0,0,0.26458333,0,263.13332)"
       id="path9284" />
    <path
       style="opacity:1;fill:#64b5f6;fill-opacity:1;stroke:none;stroke-width:1.99999988;stroke-linecap:butt;stroke-linejoin:miter;stroke-miterlimit:2;stroke-dasharray:none;stroke-dashoffset:0;stroke-opacity:1"
       d="M 40 52 L 8 66.222656 L 8 73.142578 L 32 104 L 40 52 z "
       transform="matrix(0.26458333,0,0,0.26458333,0,263.13332)"
       id="path9286" />
    <path
       style="opacity:1;fill:#90caf9;fill-opacity:1;stroke:none;stroke-width:1.99999988;stroke-linecap:butt;stroke-linejoin:miter;stroke-miterlimit:2;stroke-dasharray:none;stroke-dashoffset:0;stroke-opacity:1"
       d="M 8 73.142578 L 8 98.666016 L 32 104 L 8 73.142578 z "
       transform="matrix(0.26458333,0,0,0.26458333,0,263.13332)"
       id="path9288" />
    <path
       style="opacity:1;fill:#64b5f6;fill-opacity:1;stroke:none;stroke-width:0.52916664;stroke-linecap:butt;stroke-linejoin:miter;stroke-miterlimit:2;stroke-dasharray:none;stroke-dashoffset:0;stroke-opacity:1"
       d="m 16.933333,287.47499 -6.35,-10.58334 8.466666,4.23334 z"
       id="path9290"
       inkscape:connector-curvature="0" />
    <path
       style="opacity:1;fill:#90caf9;fill-opacity:1;stroke:none;stroke-width:0.52916664;stroke-linecap:butt;stroke-linejoin:miter;stroke-miterlimit:2;stroke-dasharray:none;stroke-dashoffset:0;stroke-opacity:1"
       d="m 16.933333,287.47499 -6.35,-10.58334 -2.1166671,13.75834 z"
       id="path9292"
       inkscape:connector-curvature="0" />
    <path
       style="opacity:1;fill:#90caf9;fill-opacity:1;stroke:none;stroke-width:0.52916664;stroke-linecap:butt;stroke-linejoin:miter;stroke-miterlimit:2;stroke-dasharray:none;stroke-dashoffset:0;stroke-opacity:1"
       d="m 28.575,279.00832 -11.641667,8.46667 2.116666,-6.35 z"
       id="path9294"
       inkscape:connector-curvature="0"
       sodipodi:nodetypes="cccc" />
    <path
       style="opacity:1;fill:#64b5f6;fill-opacity:1;stroke:none;stroke-width:0.52916664;stroke-linecap:butt;stroke-linejoin:miter;stroke-miterlimit:2;stroke-dasharray:none;stroke-dashoffset:0;stroke-opacity:1"
       d="m 28.575,279.00832 v 10.58333 l -11.641667,-2.11666 z"
       id="path9296"
       inkscape:connector-curvature="0" />
    <path
       style="opacity:1;fill:#90caf9;fill-opacity:1;stroke:none;stroke-width:1.99999988;stroke-linecap:butt;stroke-linejoin:miter;stroke-miterlimit:2;stroke-dasharray:none;stroke-dashoffset:0;stroke-opacity:1"
       d="M 108 60 L 108 100 L 120 97 L 120 87 L 108 60 z "
       transform="matrix(0.26458333,0,0,0.26458333,0,263.13332)"
       id="path9298" />
    <path
       style="opacity:1;fill:#64b5f6;fill-opacity:1;stroke:none;stroke-width:1.99999988;stroke-linecap:butt;stroke-linejoin:miter;stroke-miterlimit:2;stroke-dasharray:none;stroke-dashoffset:0;stroke-opacity:1"
       d="M 108 60 L 120 87 L 120 64 L 108 60 z "
       transform="matrix(0.26458333,0,0,0.26458333,0,263.13332)"
       id="path9300" />
  </g>
</svg>
