<?xml version="1.0" encoding="UTF-8" standalone="no"?>
<!-- Created with Inkscape (http://www.inkscape.org/) -->

<svg
   xmlns:dc="http://purl.org/dc/elements/1.1/"
   xmlns:cc="http://creativecommons.org/ns#"
   xmlns:rdf="http://www.w3.org/1999/02/22-rdf-syntax-ns#"
   xmlns:svg="http://www.w3.org/2000/svg"
   xmlns="http://www.w3.org/2000/svg"
   xmlns:sodipodi="http://sodipodi.sourceforge.net/DTD/sodipodi-0.dtd"
   xmlns:inkscape="http://www.inkscape.org/namespaces/inkscape"
   width="128"
   height="128"
   viewBox="101.599999488 0 33.866666496 33.866666496"
   version="1.1"
   id="svg8"
   inkscape:version="0.92.2 5c3e80d, 2017-08-06"
   sodipodi:docname="mist.svg">
  <defs
     id="defs2" />
  <sodipodi:namedview
     id="base"
     pagecolor="#ffffff"
     bordercolor="#666666"
     borderopacity="1.0"
     inkscape:pageopacity="0.0"
     inkscape:pageshadow="2"
     inkscape:zoom="4.0000001"
     inkscape:cx="269.8719"
     inkscape:cy="208.13957"
     inkscape:document-units="px"
     inkscape:current-layer="layer2"
     showgrid="true"
     units="px"
     inkscape:window-width="1920"
     inkscape:window-height="1182"
     inkscape:window-x="0"
     inkscape:window-y="18"
     inkscape:window-maximized="0"
     inkscape:snap-global="true"
     showguides="false"
     inkscape:guide-bbox="true">
    <inkscape:grid
       type="xygrid"
       id="grid4485"
       empspacing="4"
       spacingx="2.1166666"
       spacingy="2.1166666" />
    <inkscape:grid
       type="xygrid"
       id="grid27"
       color="#ff3f00"
       opacity="0.50980392"
       empcolor="#ff3f00"
       empopacity="0.25098039"
       empspacing="4"
       spacingx="33.866666"
       spacingy="33.866666" />
    <sodipodi:guide
       position="67.73333,135.46667"
       orientation="1,0"
       id="guide45"
       inkscape:locked="false" />
    <sodipodi:guide
       position="101.59999,135.46667"
       orientation="1,0"
       id="guide47"
       inkscape:locked="false" />
    <sodipodi:guide
       position="0,135.46667"
       orientation="0,1"
       id="guide49"
       inkscape:locked="false" />
    <sodipodi:guide
       position="0,101.6"
       orientation="0,1"
       id="guide51"
       inkscape:locked="false" />
    <sodipodi:guide
       position="0,67.733333"
       orientation="0,1"
       id="guide53"
       inkscape:locked="false" />
    <sodipodi:guide
       position="0,33.866667"
       orientation="0,1"
       id="guide55"
       inkscape:locked="false" />
    <sodipodi:guide
       position="127,0"
       orientation="0,1"
       id="guide57"
       inkscape:locked="false" />
    <sodipodi:guide
       position="0,135.46668"
       orientation="1,0"
       id="guide59"
       inkscape:locked="false" />
    <sodipodi:guide
       position="135.46666,135.46667"
       orientation="1,0"
       id="guide61"
       inkscape:locked="false" />
  </sodipodi:namedview>
  <metadata
     id="metadata5">
    <rdf:RDF>
      <cc:Work
         rdf:about="">
        <dc:format>image/svg+xml</dc:format>
        <dc:type
           rdf:resource="http://purl.org/dc/dcmitype/StillImage" />
        <dc:title />
      </cc:Work>
    </rdf:RDF>
  </metadata>
  <g
     inkscape:label="Layer 1"
     inkscape:groupmode="layer"
     id="layer1"
     transform="translate(0,-161.53332)"
     sodipodi:insensitive="true">
    <path
       style="opacity:1;fill:#e1f5fe;fill-opacity:1;stroke:none;stroke-width:1.58749998;stroke-linecap:butt;stroke-linejoin:miter;stroke-miterlimit:2;stroke-dasharray:none;stroke-dashoffset:0;stroke-opacity:1"
       d="m 150.09623,166.76079 c 0.0441,-0.13229 0,-0.44097 0.13229,-0.39688 0.1323,0.0441 0.003,0.36306 -0.13229,0.39688 -0.3025,0.0756 -0.61577,-0.16332 -0.92604,-0.13229 -0.15821,0.0158 -0.25883,0.1857 -0.39687,0.26458 -0.17123,0.0978 -0.34208,0.20222 -0.52917,0.26458 -0.21331,0.0711 -0.4649,0.0231 -0.66146,0.1323 -0.21806,0.12114 -0.30605,0.4176 -0.52917,0.52916 -0.23991,0.11996 -0.53682,0.0552 -0.79375,0.13229 -0.24298,0.0729 -1.03306,0.56299 -1.19062,0.66146 -0.13483,0.0843 -0.28445,0.15216 -0.39688,0.26459 -0.1559,0.1559 -0.25168,0.36323 -0.39687,0.52916 -0.16427,0.18773 -0.3649,0.34144 -0.52917,0.52917 -0.50248,0.57427 -0.93017,1.3298 -1.32291,1.98437 -0.1323,0.22049 -0.29245,0.42649 -0.39688,0.66146 -0.0738,0.16615 -0.051,0.36655 -0.13229,0.52917 -0.0986,0.19721 -0.31946,0.32272 -0.39688,0.52917 -0.0619,0.16515 0.0219,0.35414 0,0.52916 -0.0225,0.18042 -0.0748,0.35668 -0.13229,0.52917 -0.0312,0.0935 -0.12006,0.16674 -0.13229,0.26458 -0.0328,0.26254 0,0.52917 0,0.79375 0,0.17639 0,0.35278 0,0.52917 0,0.22049 0.0478,0.44622 0,0.66146 -0.0428,0.19251 -0.21675,0.33784 -0.26458,0.52916 -0.0428,0.17113 0,0.35278 0,0.52917 0,0.22049 0,0.44097 0,0.66146 0,0.17639 -0.0485,0.35956 0,0.52917 0.0437,0.15287 0.20875,0.248 0.26458,0.39687 0.079,0.21054 0.0921,0.44023 0.13229,0.66146 0.048,0.2639 0.0233,0.54863 0.13229,0.79375 0.076,0.17096 0.30602,0.23333 0.39688,0.39687 0.13544,0.2438 0.14918,0.53986 0.26458,0.79375 0.1064,0.23409 0.29245,0.42649 0.39688,0.66146 0.0738,0.16615 0.0359,0.37499 0.13229,0.52917 0.13221,0.21153 0.3649,0.34143 0.52917,0.52917 0.29293,0.33477 0.50082,0.72355 0.79375,1.05833 0.32853,0.37546 0.70555,0.70555 1.05833,1.05833 0.35278,0.35278 0.68287,0.72981 1.05833,1.05834 0.29543,0.25849 0.85258,0.62472 1.19063,0.79375 0.2124,0.10619 0.45387,0.14925 0.66146,0.26458 0.38547,0.21415 0.66391,0.59654 1.05833,0.79375 0.0136,0.007 1.03152,0.25453 1.05833,0.26458 1.08253,0.54127 -0.0224,0.0366 1.05834,0.39688 0.0935,0.0312 0.16732,0.11608 0.26458,0.13229 0.17399,0.029 0.35278,0 0.52917,0 0.26458,0 0.52916,0 0.79375,0 0.17638,0 0.35277,0 0.52916,0 0.22049,0 0.44232,0.0243 0.66146,0 0.18071,-0.0201 0.35088,-0.0966 0.52917,-0.13229 0.26302,-0.0526 0.52984,-0.0843 0.79375,-0.13229 0.22122,-0.0402 0.43772,-0.10992 0.66146,-0.1323 2.01194,-0.20119 -0.74202,0.29858 1.32291,-0.26458 0.1288,-0.0351 1.27407,-0.19213 1.45521,-0.26458 0.23874,-0.0955 0.43669,-0.272 0.66146,-0.39688 0.17239,-0.0958 0.35278,-0.17639 0.52917,-0.26458 0.26458,-0.17639 0.51907,-0.36894 0.79375,-0.52917 1.65359,-0.9646 -0.11432,0.24112 1.71979,-0.92604 0.69889,-0.44475 0.40701,-0.35613 1.05833,-0.92604 0.16593,-0.14519 0.37326,-0.24097 0.52917,-0.39688 0.0339,-0.0339 0.60512,-0.79458 0.66146,-0.92604 0.0716,-0.16711 0.0823,-0.35434 0.13229,-0.52916 0.0383,-0.13409 0.11257,-0.25883 0.13229,-0.39688 0.0249,-0.17462 0,-0.35278 0,-0.52917 0,-0.13229 0,-0.26458 0,-0.39687 0,-0.35278 0,-0.70556 0,-1.05833 0,-0.17639 0.0195,-0.35386 0,-0.52917 -0.0248,-0.22348 -0.0953,-0.43967 -0.13229,-0.66146 -0.0513,-0.30757 -0.081,-0.61847 -0.13229,-0.92604 -0.23724,-1.4234 0.0457,0.11433 -0.52917,-1.32292 -0.0835,-0.20877 -0.0677,-0.44609 -0.13229,-0.66146 -0.0682,-0.22745 -0.17639,-0.44097 -0.26459,-0.66145 -0.0882,-0.22049 -0.16631,-0.44528 -0.26458,-0.66146 -0.12241,-0.2693 -0.27673,-0.52344 -0.39687,-0.79375 -0.0566,-0.12743 -0.0584,-0.27863 -0.1323,-0.39688 -0.14965,-0.23944 -0.36724,-0.43014 -0.52916,-0.66146 -0.58563,-0.83661 -0.15645,-0.51723 -0.92604,-1.19062 -0.45172,-0.39525 -0.82431,-0.55208 -1.32292,-0.92604 -0.27553,-0.20665 -0.50319,-0.47656 -0.79375,-0.66146 -0.20035,-0.12749 -0.44226,-0.17325 -0.66146,-0.26458 -0.31,-0.12917 -0.60977,-0.28393 -0.92604,-0.39688 -0.70256,-0.20073 -1.0486,-0.2851 -1.71979,-0.52917 -0.40421,-0.14698 -0.75729,-0.34872 -1.19063,-0.39687 -0.21914,-0.0243 -0.44945,0.0606 -0.66146,0 -0.11992,-0.0343 -0.15302,-0.20881 -0.26458,-0.26458 -0.15777,-0.0789 -0.3714,0.0789 -0.52917,0 -0.0394,-0.0197 0.0312,-0.10111 0,-0.1323 -0.0312,-0.0312 -0.16817,0.0256 -0.13229,0 0.33853,-0.2418 0.70556,-0.44097 1.05834,-0.66145"
       id="path29"
       inkscape:connector-curvature="0" />
    <path
       style="opacity:1;fill:#e1f5fe;fill-opacity:1;stroke:none;stroke-width:1.58749998;stroke-linecap:butt;stroke-linejoin:miter;stroke-miterlimit:2;stroke-dasharray:none;stroke-dashoffset:0;stroke-opacity:1"
       d="m 204.33581,167.02538 c -0.43895,-0.2214 -0.84824,-0.51553 -1.31685,-0.66419 -0.0841,-0.0267 -0.10342,0.1592 -0.18709,0.18709 -0.11832,0.0394 -0.24945,0 -0.37417,0 -0.18709,0 -0.37673,-0.0307 -0.56127,0 -0.38905,0.0648 -0.73348,0.30934 -1.12253,0.37418 -0.18455,0.0308 -0.37563,-0.0232 -0.56127,0 -0.31553,0.0394 -0.6194,0.15197 -0.93544,0.18709 -0.24793,0.0275 -0.50083,-0.0309 -0.74836,0 -2.32006,0.29001 0.55429,0.0635 -1.30962,0.37418 -0.25342,0.0422 -0.99982,0 -1.30962,0 -0.12472,0 -0.25317,-0.0302 -0.37418,0 -0.13528,0.0338 -0.24188,0.14299 -0.37417,0.18708 -0.19881,0.0663 -0.54955,-0.0663 -0.74836,0 -0.0837,0.0279 -0.1082,0.14765 -0.18709,0.18709 -0.11156,0.0558 -0.26262,-0.0558 -0.37417,0 -0.0789,0.0394 -0.10821,0.14765 -0.18709,0.18709 -0.0558,0.0279 -0.13131,-0.0279 -0.18709,0 -0.0789,0.0394 -0.10821,0.14765 -0.18709,0.18709 -0.0558,0.0279 -0.13131,-0.0279 -0.18709,0 -0.0789,0.0394 -0.10342,0.1592 -0.18709,0.18709 -0.11832,0.0394 -0.25585,-0.0394 -0.37417,0 -0.0837,0.0279 -0.11371,0.13817 -0.18709,0.18709 -1.3565,0.67825 0.29581,-0.19721 -0.56127,0.37418 -0.31155,0.20769 -0.83353,0.34451 -1.12253,0.56126 -0.14111,0.10583 -0.22293,0.28343 -0.37418,0.37418 -0.1691,0.10146 -0.40727,0.0639 -0.56126,0.18709 -0.17558,0.14046 -0.1986,0.4208 -0.37418,0.56126 -0.154,0.1232 -0.38488,0.0989 -0.56127,0.18709 -0.20111,0.10056 -0.36846,0.25849 -0.56126,0.37418 -0.11958,0.0717 -0.26529,0.1 -0.37418,0.18709 -0.20661,0.16528 -0.35801,0.39188 -0.56127,0.56126 -0.17273,0.14395 -0.37417,0.24946 -0.56126,0.37418 -0.48603,0.32402 -0.84551,0.54868 -1.30962,0.93544 -0.13551,0.11293 -0.22742,0.27634 -0.37418,0.37418 -1.62005,1.08003 0.13752,-0.42642 -1.49671,0.93545 -0.13551,0.11292 -0.26399,0.23644 -0.37418,0.37417 -0.14046,0.17558 -0.20144,0.41732 -0.37417,0.56127 -1.29331,1.07775 -0.25867,-0.37825 -1.30963,0.93544 -0.0871,0.10889 -0.1353,0.24471 -0.18709,0.37418 -0.0732,0.1831 -0.0639,0.40727 -0.18708,0.56127 -0.14047,0.17558 -0.44558,0.18136 -0.56127,0.37417 -0.0963,0.16043 0.0695,0.38756 0,0.56127 -0.0655,0.16377 -0.29529,0.21641 -0.37418,0.37418 -0.0558,0.11155 0.0302,0.25317 0,0.37417 -0.0338,0.13529 -0.16416,0.23663 -0.18709,0.37418 -0.041,0.24606 0,0.4989 0,0.74836 0,0.56126 0,1.12253 0,1.68379 0,0.10282 -0.0373,1.3101 0,1.49671 0.11721,0.58603 0.58233,1.40007 0.93545,1.87089 0.15715,0.20954 0.40411,0.35173 0.56126,0.56127 0.37861,0.50481 -0.003,0.30659 0.37418,0.93544 0.0908,0.15125 0.23644,0.26399 0.37418,0.37418 0.17558,0.14046 0.38569,0.23371 0.56127,0.37417 0.13773,0.11019 0.22741,0.27634 0.37417,0.37418 0.23206,0.1547 0.5163,0.21947 0.74836,0.37418 0.14676,0.0978 0.22292,0.28342 0.37417,0.37418 0.30548,0.18328 1.26678,0.31669 1.49671,0.37417 0.52547,0.13137 0.98169,0.38959 1.49671,0.56127 0.57617,0.19206 1.09067,0.2259 1.6838,0.37418 0.19132,0.0478 0.36995,0.13925 0.56127,0.18709 0.30849,0.0771 0.63086,0.0957 0.93544,0.18708 0.32167,0.0965 0.61684,0.26798 0.93544,0.37418 0.25244,0.0841 1.49103,0.35935 1.6838,0.37418 0.49743,0.0383 0.99781,0 1.49671,0 0.43654,0 0.87747,-0.0617 1.30962,0 0.44945,0.0642 0.8596,0.31417 1.30962,0.37417 0.49453,0.0659 0.99891,-0.0332 1.49671,0 0.44,0.0293 0.86951,0.15959 1.30962,0.18709 1.18259,0.0739 2.37143,-0.0623 3.55469,0 0.56394,0.0297 1.11994,0.15577 1.68379,0.18709 0.56041,0.0311 1.12254,0 1.6838,0 0.62363,0 1.24726,0 1.87089,0 0.68599,0 1.37507,-0.065 2.05797,0 0.63312,0.0603 1.23778,0.31388 1.87089,0.37418 0.6829,0.065 1.37198,0 2.05798,0 0.68599,0 1.37198,0 2.05797,0 0.74836,0 1.4993,-0.0622 2.24507,0 0.75605,0.063 1.489,0.31117 2.24506,0.37418 0.74577,0.0621 1.49671,0 2.24507,0 0.74835,0 1.4967,0 2.24506,0 3.11814,0 6.23629,0 9.35443,0 2.1827,0 4.3654,0 6.5481,0 0.4989,0 0.99781,0 1.49671,0 0.43654,0 0.87902,0.0718 1.30962,0 0.33127,-0.0552 0.60613,-0.30832 0.93544,-0.37418 0.30577,-0.0612 0.62363,0 0.93545,0 0.87308,0 1.74616,0 2.61924,0 0.15667,0 0.79317,0.0356 0.93544,0 0.13529,-0.0338 0.2389,-0.15327 0.37418,-0.18709 0.121,-0.0302 0.25187,0.0245 0.37418,0 0.19338,-0.0387 0.36674,-0.15467 0.56126,-0.18709 0.18455,-0.0307 0.37418,0 0.56127,0 0.24945,0 0.4989,0 0.74835,0 0.12473,0 0.25188,0.0245 0.37418,0 0.19338,-0.0387 0.36789,-0.14841 0.56127,-0.18709 0.18661,-0.0373 1.39389,0 1.49671,0 0.0624,0 0.12792,0.0197 0.18708,0 0.1323,-0.0441 0.24189,-0.14299 0.37418,-0.18709 0.16838,-0.0561 0.39289,0.0561 0.56127,0 0.0837,-0.0279 0.11653,-0.13417 0.18709,-0.18708 0.17988,-0.13491 0.36846,-0.2585 0.56126,-0.37418 0.23915,-0.14349 0.5163,-0.21947 0.74836,-0.37418 0.21587,-0.14391 0.34539,-0.41735 0.56126,-0.56126 0.11603,-0.0774 0.25816,-0.10974 0.37418,-0.18709 0.2753,-0.18353 0.47306,-0.56483 0.74836,-0.74836 0.11602,-0.0773 0.29051,-0.0755 0.37417,-0.18709 0.38735,-0.51646 -0.0294,-0.47927 0.37418,-0.74835 0.11603,-0.0773 0.25815,-0.10974 0.37418,-0.18709 0.16144,-0.10763 0.41513,-0.41513 0.56126,-0.56127 0.18709,-0.18708 0.41451,-0.34111 0.56127,-0.56126 0.0346,-0.0519 -0.0197,-0.12793 0,-0.18709 0.0441,-0.13229 0.10974,-0.25815 0.18709,-0.37418 0.0489,-0.0734 0.13817,-0.1137 0.18709,-0.18709 0.87055,-1.30583 -0.83018,0.91982 0.56126,-0.93544 0.0529,-0.0706 0.13817,-0.11371 0.18709,-0.18709 0.0774,-0.11603 0.10342,-0.26262 0.18709,-0.37418 0.10583,-0.14111 0.24945,-0.24945 0.37418,-0.37417 0.24945,-0.24945 0.4989,-0.49891 0.74835,-0.74836 0.0624,-0.0624 0.14765,-0.1082 0.18709,-0.18709 0.0279,-0.0558 -0.0441,-0.14299 0,-0.18708 0.0986,-0.0986 0.29683,-0.0711 0.37418,-0.18709 0.0692,-0.10378 0,-0.24946 0,-0.37418 0,-0.43654 0,-0.87308 0,-1.30962 0,-0.37418 0,-0.74836 0,-1.12253 0,-0.12473 0,-0.24945 0,-0.37418 0,-0.12473 0.0394,-0.25585 0,-0.37418 -0.0882,-0.26458 -0.24945,-0.4989 -0.37418,-0.74835 -0.0624,-0.12473 -0.11534,-0.2546 -0.18709,-0.37418 -0.11568,-0.19281 -0.27362,-0.36015 -0.37417,-0.56127 -0.29245,-0.58488 -0.0746,-0.72565 -0.56127,-1.30962 -0.14395,-0.17273 -0.41732,-0.20144 -0.56127,-0.37417 -0.17854,-0.21426 -0.19563,-0.53411 -0.37417,-0.74836 -0.14395,-0.17274 -0.40227,-0.21518 -0.56127,-0.37418 -0.15899,-0.15899 -0.20144,-0.41732 -0.37418,-0.56126 -0.21425,-0.17855 -0.52523,-0.20684 -0.74835,-0.37418 -0.28222,-0.21167 -0.46989,-0.53177 -0.74836,-0.74835 -1.10615,-0.86035 -0.77214,-0.34199 -2.05797,-0.93545 -0.45651,-0.21069 -0.85401,-0.53573 -1.30962,-0.74835 -0.48284,-0.22533 -0.99781,-0.37418 -1.49671,-0.56127 -0.49891,-0.18709 -0.98814,-0.40233 -1.49671,-0.56126 -0.76884,-0.24027 -2.65562,-0.6297 -3.3676,-0.74836 -0.49594,-0.0827 -1.00508,-0.0817 -1.49671,-0.18709 -0.38566,-0.0826 -0.73207,-0.3184 -1.12253,-0.37417 -0.49389,-0.0706 -0.99927,0.0383 -1.49671,0 -0.31705,-0.0244 -0.6194,-0.15198 -0.93544,-0.18709 -0.24793,-0.0275 -0.50484,0.0541 -0.74836,0 -0.32783,-0.0729 -0.61377,-0.27768 -0.93544,-0.37418 -3.54664,-1.06399 1.23905,0.46243 -1.6838,-0.18709 -0.32783,-0.0729 -0.60613,-0.30831 -0.93544,-0.37418 -0.30576,-0.0611 -0.62363,0 -0.93544,0 -0.37418,0 -0.74836,0 -1.12254,0 -0.81071,0 -1.62143,0 -2.43215,0 -0.37417,0 -0.74989,0.0339 -1.12253,0 -0.31668,-0.0288 -0.61855,-0.16068 -0.93544,-0.18709 -0.74577,-0.0621 -1.49978,0.0678 -2.24507,0 -0.37778,-0.0343 -0.74474,-0.15274 -1.12253,-0.18708 -0.31053,-0.0282 -0.62363,0 -0.93544,0 -0.68599,0 -1.37198,0 -2.05797,0 -2.05798,0 -4.11595,0 -6.17393,0 -1.1849,0 -2.36979,0 -3.55469,0 -0.43654,0 -0.87308,0 -1.30962,0 -0.31181,0 -0.62517,-0.031 -0.93544,0 -0.31641,0.0316 -0.6194,0.15197 -0.93544,0.18708 -0.49586,0.0551 -1.00282,-0.0705 -1.49671,0 -0.19523,0.0279 -0.36789,0.14842 -0.56127,0.18709 -0.1223,0.0245 -0.24945,0 -0.37418,0 -0.37417,0 -0.74835,0 -1.12253,0 -0.12472,0 -0.25317,-0.0302 -0.37418,0 -0.19132,0.0478 -0.36994,0.13926 -0.56126,0.18709 -0.15394,0.0385 -0.95089,0 -1.12253,0 -0.1584,0 -0.64778,0.0335 -0.74836,0 -0.0837,-0.0279 -0.10342,-0.1592 -0.18709,-0.18709 -0.12727,-0.0424 -0.83624,0.0496 -0.93544,0 -0.0789,-0.0394 -0.10821,-0.14764 -0.18709,-0.18709 -0.0695,-0.0348 -1.15001,0 -1.30962,0 -0.43654,0 -0.87308,0 -1.30962,0 -0.12473,0 -0.3407,0.12015 -0.37418,0 -0.0603,-0.21643 0.12955,-0.43029 0.19433,-0.64543"
       id="path37"
       inkscape:connector-curvature="0" />
    <path
       style="opacity:1;fill:#e1f5fe;fill-opacity:1;stroke:none;stroke-width:1.58749998;stroke-linecap:butt;stroke-linejoin:miter;stroke-miterlimit:2;stroke-dasharray:none;stroke-dashoffset:0;stroke-opacity:1"
       d="m 145.06915,203.00871 c 1.06037,-0.44308 1.84734,-0.71387 2.94574,-0.91358 0.37322,-0.0679 0.75291,-0.10179 1.12253,-0.18709 0.44239,-0.10209 0.87161,-0.25472 1.30962,-0.37418 0.24807,-0.0676 0.4928,-0.15869 0.74836,-0.18709 0.30991,-0.0344 0.62518,0.031 0.93544,0 2.48241,-0.24824 -0.59964,-0.18708 1.87089,-0.18708 0.4989,0 0.99781,0 1.49671,0 0.12472,0 0.24945,0 0.37418,0 0.0624,0 0.13131,-0.0279 0.18709,0 0.0789,0.0394 0.12472,0.12472 0.18708,0.18708 0.0624,0.0624 0.12473,0.12473 0.18709,0.18709 0.24945,0.24945 0.49891,0.49891 0.74836,0.74836 0.0624,0.0624 0.1137,0.13816 0.18709,0.18709 0.31154,0.2077 0.83352,0.34451 1.12253,0.56126 0.21166,0.15875 0.34112,0.41451 0.56126,0.56127 0.11603,0.0773 0.24946,0.12472 0.37418,0.18709 0.12473,0.12472 0.23644,0.26398 0.37418,0.37418 0.12529,0.10023 0.60206,0.34182 0.74835,0.56126 0.2077,0.31155 0.34452,0.83353 0.56127,1.12253 0.10583,0.14111 0.24945,0.24946 0.37418,0.37418 0.0624,0.0624 0.15433,0.1052 0.18708,0.18709 0.0955,0.23874 0.0445,0.53441 0.18709,0.74835 0.12473,0.18709 0.42081,0.1986 0.56127,0.37418 0.1232,0.15399 0.12473,0.37418 0.18709,0.56127 0.12472,0.37417 0.24945,0.74835 0.37418,1.12253 0.0624,0.18709 0.0892,0.39004 0.18708,0.56126 0.15471,0.27073 0.40657,0.47763 0.56127,0.74836 0.0978,0.17123 0.13291,0.37164 0.18709,0.56127 0.38411,1.34439 -0.0116,0.1406 0.37418,1.68379 0.19203,0.76812 0.65961,1.44639 0.74835,2.24507 0.0344,0.3099 0,0.62363 0,0.93544 0,0.56127 0,1.12253 0,1.6838 0,1.87088 0,3.74177 0,5.61266 0,2.78551 -0.0756,-0.68064 0.18709,1.6838 0.0344,0.3099 0,0.62363 0,0.93544 0,0.24945 0,0.4989 0,0.74835 0,0.87308 0,1.74616 0,2.61925 0,1.30962 0,2.61924 0,3.92886 0,0.31181 0,0.62363 0,0.93544 0,0.43654 -0.0362,0.87459 0,1.30962 0.0729,0.87516 0.32407,1.18826 0.56127,2.05798 0.0837,0.30678 0.0579,0.64486 0.18709,0.93544 0.12663,0.28494 0.44546,0.45884 0.56126,0.74836 0.68636,1.7159 -0.11426,0.51479 0.18709,1.87088 0.0728,0.32784 0.3141,0.60503 0.37418,0.93545 0.0669,0.36814 0,0.74835 0,1.12253 0,0.24945 0,0.4989 0,0.74835 0,0.93545 0,1.87089 0,2.80633 0,2.24507 0,4.49013 0,6.73519 0,0.81072 0,1.62144 0,2.43216 0,0.24945 0.0489,0.50375 0,0.74835 -0.0773,0.38676 -0.29683,0.73577 -0.37418,1.12253 -0.0489,0.24461 0,0.49891 0,0.74836 0,0.56126 0,1.12253 0,1.6838 0,0.31181 0,0.62363 0,0.93544 0,0.43654 0.0362,0.87459 0,1.30962 -0.0264,0.31689 -0.15545,0.61903 -0.18709,0.93544 -0.031,0.31027 0,0.62363 0,0.93545 0,0.43654 0,0.87308 0,1.30962 0,0.81072 0,1.62143 0,2.43215 0,3.18051 0,6.36102 0,9.54152 0,1.1849 0,2.36979 0,3.55469 0,0.43654 0,0.87308 0,1.30962 0,0.12472 0.0303,0.25317 0,0.37418 -0.0338,0.13528 -0.15327,0.23889 -0.18709,0.37417 -0.16301,0.65205 0.29719,0.12832 -0.18709,0.93545 -0.0907,0.15125 -0.29529,0.21641 -0.37417,0.37417 -0.0558,0.11156 0.0302,0.25318 0,0.37418 -0.0338,0.13528 -0.1353,0.2447 -0.18709,0.37418 -0.0732,0.1831 -0.11385,0.37816 -0.18709,0.56127 -0.15332,0.38329 -0.43082,0.73118 -0.56127,1.12253 -0.0197,0.0592 0.0279,0.1313 0,0.18708 -0.0394,0.0789 -0.14764,0.10821 -0.18709,0.18709 -0.0882,0.17639 -0.13925,0.36995 -0.18709,0.56127 -0.0151,0.0605 0.0279,0.13131 0,0.18709 -0.0394,0.0789 -0.12472,0.12472 -0.18708,0.18709 -0.12473,0.12472 -0.23307,0.26834 -0.37418,0.37417 -0.4208,0.3156 -0.6276,0.33789 -0.93544,0.74836 -0.0837,0.11156 -0.12473,0.24945 -0.18709,0.37418 -0.12473,0.18708 -0.23372,0.38568 -0.37418,0.56126 -0.11019,0.13774 -0.26834,0.23307 -0.37418,0.37418 -0.0837,0.11156 -0.10342,0.26262 -0.18709,0.37418 -0.10583,0.14111 -0.24945,0.24945 -0.37417,0.37417 -0.18709,0.18709 -0.37418,0.37418 -0.56127,0.56127 -0.43876,0.43876 0.0441,-0.13229 -0.18709,0.56127 -0.0279,0.0837 -0.14765,0.1082 -0.18709,0.18709 -0.0279,0.0558 0.0279,0.1313 0,0.18708 -0.0248,0.0497 -0.51159,0.53643 -0.56126,0.56127 -0.0558,0.0279 -0.12473,0 -0.18709,0 -0.12473,0 -0.25585,-0.0394 -0.37418,0 -0.0837,0.0279 -0.1082,0.14765 -0.18709,0.18709 -0.0558,0.0279 -0.12472,0 -0.18709,0 -0.0624,0 -0.12472,0 -0.18708,0 -0.21734,0 -0.76584,-0.0424 -0.93545,0 -0.13528,0.0338 -0.23744,0.15974 -0.37418,0.18709 -0.18345,0.0367 -0.37417,0 -0.56126,0 -0.18709,0 -0.37418,0 -0.56127,0 -0.62363,0 -1.24726,0 -1.87088,0 -0.37418,0 -0.74836,0 -1.12254,0 -0.18709,0 -0.37605,0.0265 -0.56126,0 -0.25455,-0.0364 -0.4928,-0.1587 -0.74836,-0.18709 -0.3099,-0.0344 -0.62553,0.0344 -0.93544,0 -0.25556,-0.0284 -0.4928,-0.1587 -0.74836,-0.18709 -0.3099,-0.0344 -0.63105,0.0676 -0.93544,0 -0.27225,-0.0605 -0.47778,-0.30654 -0.74835,-0.37418 -0.24201,-0.0605 -0.5023,0.041 -0.74836,0 -1.35382,-0.22563 0.29412,-0.089 -0.56126,-0.37417 -0.11833,-0.0395 -0.26262,0.0558 -0.37418,0 -0.0558,-0.0279 0.0441,-0.143 0,-0.18709 -0.0441,-0.0441 -0.14299,0.0441 -0.18709,0 -0.0512,-0.0512 0.0507,-0.64686 0,-0.74836 -0.0394,-0.0789 -0.14765,-0.1082 -0.18709,-0.18709 -0.0279,-0.0558 0.0197,-0.12792 0,-0.18709 -0.0882,-0.26458 -0.30653,-0.47778 -0.37418,-0.74835 -0.0302,-0.121 0.0303,-0.25318 0,-0.37418 -0.0338,-0.13528 -0.13529,-0.2447 -0.18708,-0.37418 -0.14649,-0.3662 -0.26583,-0.74328 -0.37418,-1.12253 -0.52062,-1.82217 0.0226,0.15803 -0.18709,-1.30962 -0.0364,-0.25454 -0.15869,-0.4928 -0.18709,-0.74835 -0.0344,-0.30991 0.0344,-0.62554 0,-0.93544 -0.0284,-0.25556 -0.15519,-0.49322 -0.18709,-0.74836 -0.0309,-0.24753 0.0248,-0.50014 0,-0.74836 -0.0377,-0.37745 -0.1452,-0.74551 -0.18709,-1.12253 -0.0207,-0.18594 0.0454,-0.37976 0,-0.56126 -0.0814,-0.32581 -0.27767,-0.61378 -0.37417,-0.93545 -0.0981,-0.32685 -0.32977,-1.79152 -0.37418,-2.05797 -0.61147,-3.66884 0.33571,1.75375 -0.56127,-2.43216 -0.009,-0.0425 -0.36881,-2.60315 -0.37417,-2.61924 -0.115,-0.34497 -0.42141,-0.59978 -0.56127,-0.93544 -0.17462,-0.41908 -0.2112,-0.88587 -0.37418,-1.30962 -1.21195,-3.15108 0.0182,0.85428 -0.93544,-2.24506 -0.12473,-0.43654 -0.24945,-0.87309 -0.37418,-1.30962 -0.0624,-0.37418 -0.0873,-0.75656 -0.18709,-1.12254 -0.47446,-1.73968 -0.36482,-0.0936 -0.56126,-2.05797 -0.0248,-0.24822 0,-0.49891 0,-0.74836 0,-0.37417 0,-0.74835 0,-1.12253 0,-1.6838 0,-3.3676 0,-5.05139 0,-2.05798 0,-4.11595 0,-6.17393 0,-0.74835 0,-1.49671 0,-2.24506 0,-0.31182 -0.031,-0.62518 0,-0.93545 0.0316,-0.31641 0.15544,-0.61903 0.18709,-0.93544 0.031,-0.31027 0,-0.62363 0,-0.93544 0.0624,-0.31182 0.15197,-0.6194 0.18708,-0.93545 0.0249,-0.2245 -0.0312,-1.54348 0,-1.68379 0.0605,-0.27226 0.31368,-0.47611 0.37418,-0.74836 0.0676,-0.30439 -0.0282,-0.62491 0,-0.93544 0.0343,-0.37778 0.14934,-0.74508 0.18709,-1.12253 0.0248,-0.24822 -0.0248,-0.50015 0,-0.74836 0.0378,-0.37746 0.15275,-0.74475 0.18709,-1.12253 0.0282,-0.31053 -0.0558,-0.62866 0,-0.93544 0.0705,-0.38806 0.3142,-0.73271 0.37418,-1.12254 0.0855,-0.55592 -0.0611,-1.63416 0,-2.24506 0.0316,-0.31641 0.1583,-0.61876 0.18709,-0.93544 0.0339,-0.37265 0,-0.74836 0,-1.12254 0,-0.9978 0,-1.99561 0,-2.99341 0,-0.62363 0,-1.24726 0,-1.87089 0,-0.24945 0,-0.49891 0,-0.74836 0,-0.24945 0.0353,-0.50141 0,-0.74835 -0.0279,-0.19523 -0.1592,-0.36604 -0.18709,-0.56127 -0.009,-0.0611 0.009,-1.46549 0,-1.49671 -0.0618,-0.2162 -0.29067,-0.35249 -0.37418,-0.56126 -0.0463,-0.11581 0,-0.24945 0,-0.37418 0,-0.24945 0,-0.4989 0,-0.74835 0,-0.56127 0,-1.12254 0,-1.6838 0,-0.81072 0,-1.62144 0,-2.43216 0,-0.12472 0,-0.24945 0,-0.37417 0,-0.24945 -0.0789,-0.51171 0,-0.74836 0.0558,-0.16733 0.30867,-0.2104 0.37418,-0.37417 0.0695,-0.17371 -0.0308,-0.37673 0,-0.56127 0.0324,-0.19453 0.15466,-0.36674 0.18709,-0.56127 0.0307,-0.18454 0,-0.37417 0,-0.56126 0,-0.18709 0,-0.37418 0,-0.56127 0,-0.74835 0,-1.49671 0,-2.24506 0,-1.30962 0,-2.61924 0,-3.92886 0,-0.37418 0,-0.74836 0,-1.12254 0,-0.12472 0,-0.24945 0,-0.37417 0,-0.12473 -0.0395,-0.25585 0,-0.37418 0.0279,-0.0837 0.15919,-0.10342 0.18708,-0.18709 0.0656,-0.19667 -0.0479,-0.93071 0,-1.12253 0.0214,-0.0856 0.14765,-0.10821 0.18709,-0.18709 0.0593,-0.11867 -0.0608,-0.81391 0,-0.93544 0.0394,-0.0789 0.14765,-0.10821 0.18709,-0.18709 0.0558,-0.11156 -0.0558,-0.26262 0,-0.37418 0.0394,-0.0789 0.14765,-0.1082 0.18709,-0.18709 0.0558,-0.11156 -0.0882,-0.28598 0,-0.37417 0.0441,-0.0441 0.14299,0.0441 0.18709,0 0.0882,-0.0882 -0.0558,-0.26262 0,-0.37418 0.0394,-0.0789 0.14765,-0.10821 0.18709,-0.18709 0.0279,-0.0558 -0.0441,-0.14299 0,-0.18709 0.0882,-0.0882 0.46114,0.0894 0.37417,0 -0.16174,-0.1663 -0.38152,-0.26403 -0.57228,-0.39604"
       id="path39"
       inkscape:connector-curvature="0" />
    <path
       style="opacity:1;fill:#e1f5fe;fill-opacity:1;stroke:none;stroke-width:1.58749998;stroke-linecap:butt;stroke-linejoin:miter;stroke-miterlimit:2;stroke-dasharray:none;stroke-dashoffset:0;stroke-opacity:1"
       d="m 200.10248,200.89204 c 0.47326,0.27631 0.9223,0.59905 1.41977,0.82891 0.11323,0.0523 0.24945,0 0.37418,0 0.18709,0 0.37418,0 0.56127,0 0.4989,0 0.9978,0 1.4967,0 1.62144,0 3.24287,0 4.86431,0 3.05578,0 6.11156,0 9.16734,0 0.74836,0 1.49671,0 2.24507,0 0.68599,0 1.37269,0.0311 2.05797,0 5.23388,-0.2379 -0.76318,-0.18709 3.74178,-0.18709 0.4989,0 0.9978,0 1.49671,0 0.4989,0 1.00218,0.0659 1.4967,0 0.45003,-0.06 0.8618,-0.29953 1.30963,-0.37417 0.30757,-0.0513 0.62362,0 0.93544,0 0.24945,0 0.4989,0 0.74835,0 0.49891,0 0.99781,0 1.49671,0 0.18709,0 0.37673,-0.0308 0.56127,0 0.19453,0.0324 0.36674,0.15466 0.56127,0.18708 0.18454,0.0308 0.37976,-0.0454 0.56126,0 0.32581,0.0815 0.61253,0.28192 0.93544,0.37418 0.11993,0.0343 0.24946,0 0.37418,0 0.24945,0 0.4989,0 0.74835,0 0.24946,0 0.50142,-0.0353 0.74836,0 0.19522,0.0279 0.36674,0.15467 0.56126,0.18709 0.18455,0.0308 0.37418,0 0.56127,0 0.24945,0 0.4989,0 0.74836,0 1.24725,0 2.49451,0 3.74177,0 0.43654,0 0.87308,0 1.30962,0 0.24945,0 0.5023,-0.041 0.74835,0 0.13755,0.0229 0.23663,0.16417 0.37418,0.18709 0.24606,0.041 0.4989,0 0.74836,0 0.12472,0 0.25585,-0.0394 0.37417,0 0.26459,0.0882 0.47779,0.30653 0.74836,0.37418 0.242,0.0605 0.50229,-0.041 0.74835,0 0.13755,0.0229 0.23663,0.16416 0.37418,0.18708 0.4306,0.0718 0.87902,-0.0718 1.30962,0 0.19453,0.0324 0.36674,0.15467 0.56127,0.18709 0.18454,0.0308 0.37417,0 0.56126,0 0.18709,0.0624 0.36789,0.14842 0.56127,0.18709 0.1223,0.0245 0.25317,-0.0302 0.37418,0 0.13528,0.0338 0.23662,0.16417 0.37417,0.18709 0.24606,0.041 0.5023,-0.041 0.74836,0 0.96312,0.16052 -0.26983,0.22187 0.74835,0.56127 1.40317,0.46772 0.35079,-0.11693 0.93544,0 0.47958,-0.15861 0.73751,0.27792 1.12254,0.37418 0.121,0.0303 0.25187,-0.0244 0.37418,0 0.19337,0.0387 0.36994,0.13925 0.56126,0.18708 0.0605,0.0151 0.12793,-0.0197 0.18709,0 0.13229,0.0441 0.24189,0.14299 0.37418,0.18709 0.16838,0.0561 0.39288,-0.0561 0.56126,0 0.0837,0.0279 0.10821,0.14765 0.18709,0.18709 0.17639,0.0882 0.36995,0.13926 0.56127,0.18709 0.0605,0.0151 0.1352,-0.0346 0.18709,0 0.14676,0.0978 0.24945,0.24945 0.37417,0.37418 0.0624,0.0624 0.10342,0.15919 0.18709,0.18708 0.11833,0.0394 0.25585,-0.0394 0.37418,0 0.0837,0.0279 0.1082,0.14765 0.18709,0.18709 0.0558,0.0279 0.13131,-0.0279 0.18709,0 0.0789,0.0395 0.1082,0.14765 0.18709,0.18709 0.0558,0.0279 0.1313,-0.0279 0.18708,0 0.0669,0.0335 0.69649,0.67055 0.74836,0.74836 0.0774,0.11602 0.10973,0.25815 0.18709,0.37418 0.0489,0.0734 0.13816,0.1137 0.18709,0.18708 0.1547,0.23206 0.21947,0.5163 0.37417,0.74836 0.0489,0.0734 0.13817,0.1137 0.18709,0.18709 0.0774,0.11602 0.12473,0.24945 0.18709,0.37417 0.0624,0.12473 0.15327,0.2389 0.18709,0.37418 0.0302,0.121 -0.0558,0.26262 0,0.37418 0.0789,0.15776 0.29529,0.21641 0.37418,0.37418 0.0558,0.11155 0,0.24945 0,0.37417 0,0.24946 -0.041,0.5023 0,0.74836 0.0229,0.13755 0.15326,0.23889 0.18709,0.37418 0.0756,0.3025 -0.0513,0.62787 0,0.93544 0.0324,0.19453 0.14841,0.36789 0.18709,0.56126 0.0244,0.12231 -0.0303,0.25318 0,0.37418 0.0338,0.13529 0.15326,0.2389 0.18708,0.37418 0.0302,0.121 0,0.24945 0,0.37418 0,0.18709 0,0.37418 0,0.56126 0,0.12473 -0.0303,0.25318 0,0.37418 0.0338,0.13529 0.15974,0.23744 0.18709,0.37418 0.0367,0.18345 0,0.37417 0,0.56126 0,0.24946 0,0.49891 0,0.74836 0,0.18709 -0.0232,0.37562 0,0.56126 0.0394,0.31554 0.12473,0.62363 0.18709,0.93545 0.0624,0.31181 0.11811,0.62502 0.18709,0.93544 0.0558,0.25101 0.15869,0.4928 0.18709,0.74835 0.0344,0.30991 -0.0612,0.62969 0,0.93545 0.0659,0.32931 0.30831,0.60613 0.37417,0.93544 0.0612,0.30576 -0.031,0.62518 0,0.93544 0.0316,0.31642 0.15545,0.61904 0.18709,0.93545 0.0558,0.55848 -0.062,1.12596 0,1.6838 0.0351,0.31604 0.15198,0.61939 0.18709,0.93544 0.0275,0.24793 0,0.4989 0,0.74835 0,0.31182 0,0.62363 0,0.93545 0,0.74835 0,1.49671 0,2.24506 0,0.31182 -0.0676,0.63106 0,0.93545 0.0605,0.27225 0.30654,0.47778 0.37418,0.74835 0.0605,0.242 -0.0605,0.50635 0,0.74835 0.0676,0.27057 0.27625,0.48722 0.37418,0.74836 0.0903,0.24076 0.0595,0.5251 0.18709,0.74835 0.13127,0.22973 0.4145,0.34112 0.56126,0.56127 0.10939,0.16409 0.12473,0.37418 0.18709,0.56127 0.0624,0.18709 0.15467,0.36674 0.18709,0.56126 0.0308,0.18455 -0.0592,0.38378 0,0.56127 0.14232,0.21348 0.46538,0.6478 0.56126,0.93544 0.67863,2.03586 -0.13753,-0.31351 0.18709,1.30962 0.0274,0.13674 0.1353,0.2447 0.18709,0.37418 0.0733,0.1831 0.14842,0.36789 0.18709,0.56127 0.0405,0.2026 0,1.10962 0,1.30962 0,0.12472 -0.0245,0.25187 0,0.37417 0.0387,0.19338 0.15467,0.36674 0.18709,0.56127 0.0308,0.18454 0,0.37418 0,0.56127 0,0.12472 0.0302,0.25317 0,0.37417 -0.0338,0.13529 -0.15974,0.23744 -0.18709,0.37418 -0.0367,0.18346 0.0308,0.37672 0,0.56127 -0.0324,0.19452 -0.14841,0.36788 -0.18709,0.56126 -0.0244,0.12231 0,0.24945 0,0.37418 0,0.18709 0,0.37418 0,0.56127 0,0.18709 0.0308,0.37672 0,0.56126 -0.0324,0.19453 -0.1592,0.36604 -0.18709,0.56127 -0.0705,0.49389 0.0551,1.00086 0,1.49671 -0.50389,2.51946 0.0636,-0.63598 -0.18709,1.87088 -0.0316,0.31642 -0.15544,0.61904 -0.18708,0.93545 -0.031,0.31026 0,0.62363 0,0.93544 0,0.24945 0.0489,0.50375 0,0.74836 -0.46323,2.31613 -0.30611,0.0167 -0.56127,2.05797 -0.0232,0.18565 0.0207,0.37532 0,0.56127 -0.0419,0.37701 -0.15275,0.74475 -0.18709,1.12253 -0.0508,0.55896 0,1.12253 0,1.6838 0,1.55907 0,3.11814 0,4.67721 0,0.74836 0,1.49671 0,2.24507 0,0.24945 0.0605,0.50635 0,0.74835 -0.0676,0.27057 -0.27625,0.48722 -0.37417,0.74836 -0.38003,1.01339 -0.0586,0.46888 -0.18709,1.49671 -0.3125,2.49996 -0.077,-1.28847 -0.37418,1.68379 -0.031,0.31027 0,0.62363 0,0.93545 0,0.43654 0,0.87308 0,1.30962 0,1.24726 0,2.49451 0,3.74177 0,0.31182 0,0.62363 0,0.93545 0,0.31181 0.0558,0.62865 0,0.93544 -0.16634,0.49903 -0.46702,1.30539 -0.56127,1.87089 -0.1754,1.05242 0.47166,-0.66662 -0.18709,1.30961 -0.19612,0.58839 -0.64385,1.05682 -0.74835,1.6838 -0.041,0.24606 0,0.49891 0,0.74836 0,0.0624 0.0441,0.14299 0,0.18709 -0.0986,0.0986 -0.29683,0.0711 -0.37418,0.18709 -0.0692,0.10377 0.0394,0.25585 0,0.37417 -0.0279,0.0837 -0.14765,0.10821 -0.18709,0.18709 -0.0279,0.0558 0.0197,0.12793 0,0.18709 -0.0441,0.13229 -0.14299,0.24189 -0.18708,0.37418 -0.0197,0.0592 0.0197,0.12792 0,0.18709 -0.0441,0.13229 -0.143,0.24188 -0.18709,0.37417 -0.0592,0.17749 0.0367,0.37781 0,0.56127 -0.0387,0.19338 -0.0989,0.38488 -0.18709,0.56127 -0.0394,0.0789 -0.13817,0.1137 -0.18709,0.18709 -0.0773,0.11602 -0.10974,0.25814 -0.18709,0.37417 -0.0489,0.0734 -0.13817,0.11371 -0.18709,0.18709 -0.18176,0.27264 -0.1168,0.38968 -0.37418,0.56127 -0.52374,0.34916 -0.28594,-0.0168 -0.74835,0.56126 -0.14047,0.17558 -0.21518,0.40227 -0.37418,0.56127 -0.0986,0.0986 -0.30243,0.0675 -0.37418,0.18709 -0.13229,0.22048 -0.0548,0.52787 -0.18708,0.74835 -0.04,0.0667 -0.66116,0.28698 -0.74836,0.37418 -0.0986,0.0986 -0.0885,0.27557 -0.18709,0.37418 -0.012,0.012 -0.7135,0.35094 -0.74835,0.37417 -0.33579,0.22386 -0.0384,0.33741 -0.37418,0.56127 -0.10378,0.0692 -0.25585,-0.0394 -0.37418,0 -0.0837,0.0279 -0.1082,0.14765 -0.18709,0.18709 -0.35277,0.17639 -0.76975,0.19779 -1.12253,0.37418 -0.0789,0.0394 -0.11371,0.13816 -0.18709,0.18708 -0.11602,0.0774 -0.27557,0.0885 -0.37417,0.18709 -0.0986,0.0986 -0.10974,0.25815 -0.18709,0.37418 -0.31025,0.46537 -0.043,0.0215 -0.37418,0.18709 -0.0789,0.0394 -0.1082,0.14765 -0.18709,0.18709 -0.10267,0.0513 -1.1016,-0.0347 -1.30962,0 -0.25363,0.0423 -0.49381,0.15072 -0.74835,0.18709 -0.18521,0.0265 -0.37782,-0.0367 -0.56127,0 -0.13674,0.0273 -0.23889,0.15326 -0.37418,0.18709 -0.121,0.0302 -0.25837,-0.0463 -0.37417,0 -0.20877,0.0835 -0.34796,0.30307 -0.56127,0.37417 -0.17749,0.0592 -0.37418,0 -0.56127,0 -0.4989,0 -0.9978,0 -1.4967,0 -2.11339,0 0.68909,0.11156 -1.49672,-0.37417 -0.30439,-0.0677 -0.62362,0 -0.93544,0 -0.24945,0 -0.4989,0 -0.74835,0 -0.31182,0 -0.63294,-0.0756 -0.93545,0 -0.21814,0.0545 -0.35459,0.2856 -0.56126,0.37417 -1.10482,0.4735 -0.37701,0.0628 -1.12253,0.18709 -0.50727,0.0845 -0.98643,0.31039 -1.49671,0.37418 -0.24753,0.0309 -0.5085,-0.0685 -0.74836,0 -0.2162,0.0618 -0.34795,0.30307 -0.56127,0.37417 -0.17748,0.0592 -0.37417,0 -0.56126,0 -0.31182,0 -0.62363,0 -0.93544,0 -0.62363,0 -1.24726,0 -1.87089,0 -0.4989,0 -1.00218,0.0659 -1.49671,0 -0.45002,-0.06 -0.85959,-0.31417 -1.30962,-0.37417 -0.49452,-0.0659 -0.9978,0 -1.49671,0 -0.62363,0 -1.24725,0 -1.87088,0 -2.1827,0 -4.36541,0 -6.54811,0 -0.87308,0 -1.74616,0 -2.61924,0 -0.37418,0 -0.74965,0.0311 -1.12253,0 -0.37803,-0.0315 -0.74508,-0.14935 -1.12253,-0.18709 -0.24822,-0.0248 -0.4989,0 -0.74836,0 -0.81071,0 -1.62143,0 -2.43215,0 -0.31181,0 -0.63105,0.0676 -0.93544,0 -0.27226,-0.0605 -0.47779,-0.30654 -0.74836,-0.37418 -0.021,-0.005 -1.45024,0.005 -1.49671,0 -0.31604,-0.0351 -0.61876,-0.1583 -0.93544,-0.18709 -0.37264,-0.0339 -0.74835,0 -1.12253,0 -0.62363,0 -1.24726,0 -1.87089,0 -0.43654,0 -0.87459,0.0363 -1.30962,0 -0.31689,-0.0264 -0.61903,-0.15545 -0.93544,-0.18708 -0.31027,-0.031 -0.62363,0 -0.93544,0 -0.43655,0 -0.87309,0 -1.30963,0 -0.13229,0 -2.29986,0 -2.43215,0 -0.37418,0 -0.74835,0 -1.12253,0 -0.43654,0 -0.87902,0.0718 -1.30962,0 -0.33127,-0.0552 -0.60761,-0.30133 -0.93544,-0.37418 -0.24352,-0.0541 -0.49891,0 -0.74836,0 -0.37418,0 -0.74836,0 -1.12253,0 -0.62363,0 -1.24726,0 -1.87089,0 -0.24945,0 -0.50083,0.0309 -0.74835,0 -0.25515,-0.0319 -0.49321,-0.1552 -0.74836,-0.18709 -0.24752,-0.0309 -0.4989,0 -0.74835,0 -0.49891,0 -0.99781,0 -1.49671,0 -1.6838,0 -3.3676,0 -5.0514,0 -0.68599,0 -1.37198,0 -2.05797,0 -0.10443,0 -0.8498,0.0285 -0.93545,0 -0.16733,-0.0558 -0.2164,-0.2953 -0.37417,-0.37418 -0.0558,-0.0279 -0.13131,0.0279 -0.18709,0 -0.0789,-0.0394 -0.10821,-0.14764 -0.18709,-0.18709 -0.0558,-0.0279 -0.13131,0.0279 -0.18709,0 -0.0789,-0.0394 -0.1082,-0.14764 -0.18709,-0.18709 -0.0558,-0.0279 -0.13131,0.0279 -0.18708,0 -0.15777,-0.0789 -0.20685,-0.3184 -0.37418,-0.37417 -0.11833,-0.0394 -0.25586,0.0394 -0.37418,0 -0.19075,-0.0636 -0.29777,-0.4594 -0.37418,-0.56127 -0.10583,-0.14111 -0.24945,-0.24945 -0.37418,-0.37418 -0.0624,-0.0624 -0.1082,-0.14764 -0.18708,-0.18709 -0.17639,-0.0882 -0.4035,-0.0688 -0.56127,-0.18708 -0.11156,-0.0837 -0.0885,-0.27558 -0.18709,-0.37418 -0.0986,-0.0986 -0.27557,-0.0885 -0.37418,-0.18709 -0.0882,-0.0882 0.0558,-0.26262 0,-0.37418 -0.0394,-0.0789 -0.14764,-0.1082 -0.18708,-0.18709 -0.0475,-0.0951 0.0387,-0.96787 0,-1.12253 -0.0338,-0.13528 -0.15975,-0.23744 -0.18709,-0.37418 -0.0367,-0.18345 0,-0.37417 0,-0.56126 0,-0.24945 0.0309,-0.50083 0,-0.74835 -0.0638,-0.51029 -0.27333,-0.99244 -0.37418,-1.49672 -0.0744,-0.37197 -0.0781,-0.75919 -0.18709,-1.12253 -0.0801,-0.26713 -0.29756,-0.48019 -0.37418,-0.74835 -0.0514,-0.17989 0.0265,-0.37606 0,-0.56127 -0.0364,-0.25454 -0.14481,-0.49472 -0.18708,-0.74835 -0.0615,-0.36909 0.0615,-0.75345 0,-1.12254 -0.0229,-0.13754 -0.15974,-0.23743 -0.18709,-0.37417 -0.0879,-0.43947 0.0879,-1.24433 0,-1.6838 -0.0274,-0.13674 -0.16417,-0.23663 -0.18709,-0.37418 -0.041,-0.24605 0,-0.4989 0,-0.74835 0,-0.68599 0,-1.37199 0,-2.05798 0,-0.31181 0.0387,-0.62603 0,-0.93544 -0.0245,-0.19569 -0.1592,-0.36604 -0.18709,-0.56127 -0.0353,-0.24694 0.0605,-0.50635 0,-0.74835 -0.0676,-0.27057 -0.26432,-0.49201 -0.37418,-0.74835 -0.12132,-0.28309 -0.33102,-1.0507 -0.37418,-1.30963 -0.0615,-0.36908 0.0464,-0.75124 0,-1.12253 -0.0319,-0.25514 -0.14481,-0.49472 -0.18708,-0.74835 -0.041,-0.24606 0.041,-0.5023 0,-0.74836 -0.0423,-0.25363 -0.1552,-0.49321 -0.18709,-0.74835 -0.0309,-0.24753 0,-0.49891 0,-0.74836 0,-0.37417 0,-0.74835 0,-1.12253 0,-1.18489 0,-2.36979 0,-3.55468 0,-1.06017 0,-2.12034 0,-3.18051 0,-0.24945 0,-0.4989 0,-0.74836 0,-0.12472 -0.0245,-0.25187 0,-0.37417 0.0387,-0.19338 0.15466,-0.36674 0.18709,-0.56127 0.0718,-0.4306 -0.0718,-0.87902 0,-1.30962 0.0229,-0.13755 0.16416,-0.23663 0.18708,-0.37418 0.041,-0.24606 -0.0309,-0.50083 0,-0.74835 0.0319,-0.25515 0.15073,-0.49381 0.18709,-0.74836 0.0265,-0.1852 0,-0.37418 0,-0.56126 0.0624,-0.24945 0.14482,-0.49473 0.18709,-0.74836 0.0624,-0.37417 -0.12472,-0.74835 0,-1.12253 0.0558,-0.16734 0.3184,-0.20684 0.37418,-0.37418 0.0789,-0.23665 -0.041,-0.50229 0,-0.74835 0.0229,-0.13755 0.16416,-0.23663 0.18709,-0.37418 0.041,-0.24606 -0.041,-0.5023 0,-0.74835 0.0459,-0.2751 0.32833,-0.47326 0.37418,-0.74836 0.0615,-0.36908 -0.0615,-0.75344 0,-1.12253 0.0423,-0.25363 0.14481,-0.49472 0.18708,-0.74836 0.0205,-0.12302 0,-0.24945 0,-0.37417 0,-0.18709 0,-0.37418 0,-0.56127 0,-0.12473 -0.0558,-0.26262 0,-0.37417 0.0789,-0.15777 0.3184,-0.20685 0.37418,-0.37418 0.0789,-0.23665 -0.041,-0.5023 0,-0.74836 0.0229,-0.13755 0.15327,-0.23889 0.18709,-0.37418 0.0302,-0.121 -0.0245,-0.25187 0,-0.37417 0.0387,-0.19338 0.14841,-0.36789 0.18709,-0.56127 0.0245,-0.1223 -0.0302,-0.25317 0,-0.37418 0.0338,-0.13528 0.16416,-0.23662 0.18709,-0.37417 0,-2.49051 -0.11156,0.3707 0.18709,-1.12253 0.0856,-0.42807 -0.0718,-0.87902 0,-1.30963 0.0229,-0.13755 0.15974,-0.23743 0.18708,-0.37417 0.0367,-0.18346 -0.0307,-0.37673 0,-0.56127 0.0324,-0.19453 0.14842,-0.36789 0.18709,-0.56126 0.0245,-0.12231 0,-0.24946 0,-0.37418 0,-0.37418 0,-0.74836 0,-1.12254 0,-0.18708 -0.0514,-0.38137 0,-0.56126 0.0766,-0.26816 0.29756,-0.48019 0.37418,-0.74835 0.0514,-0.17989 0,-0.37418 0,-0.56127 0,-0.43654 0,-0.87308 0,-1.30962 0,-0.24945 -0.0309,-0.50083 0,-0.74836 0.0319,-0.25514 0.15072,-0.49381 0.18709,-0.74835 0.0265,-0.18521 0,-0.37418 0,-0.56127 0,-0.24945 0,-0.4989 0,-0.74835 0,-0.68599 0,-1.37198 0,-2.05798 0,-3.30523 0,-6.61046 0,-9.9157 0,-0.74835 0,-1.49671 0,-2.24506 0,-0.24945 0,-0.4989 0,-0.74836 0,-0.12472 -0.0245,-0.25187 0,-0.37417 0.0387,-0.19338 0.14841,-0.36789 0.18709,-0.56127 0.0245,-0.1223 0,-0.24945 0,-0.37417 0,-0.31182 0,-0.62364 0,-0.93545 0,-0.18709 -0.0367,-0.37781 0,-0.56127 0.0547,-0.27347 0.30653,-0.47778 0.37417,-0.74835 0.0303,-0.121 -0.0302,-0.25318 0,-0.37418 0.0338,-0.13528 0.15975,-0.23743 0.18709,-0.37417 0.0367,-0.18346 -0.0367,-0.37782 0,-0.56127 0.0274,-0.13674 0.15327,-0.23889 0.18709,-0.37418 0.0302,-0.121 -0.0303,-0.25317 0,-0.37418 0.0338,-0.13528 0.15974,-0.23743 0.18709,-0.37417 0.0367,-0.18346 -0.0454,-0.37977 0,-0.56127 0.0214,-0.0856 0.1657,-0.10153 0.18709,-0.18709 0.0454,-0.1815 -0.0695,-0.38756 0,-0.56126 0.0655,-0.16378 0.29529,-0.21641 0.37418,-0.37418 0.0558,-0.11156 -0.0302,-0.25318 0,-0.37418 0.0676,-0.27057 0.31948,-0.47487 0.37418,-0.74835 0.0367,-0.18346 -0.0367,-0.37781 0,-0.56127 0.0969,-0.48446 0.17047,-0.25571 0.37417,-0.56127 0.0795,-0.11922 0.53093,-1.00117 0.56127,-1.12253 0.0302,-0.121 -0.0394,-0.25585 0,-0.37417 0.0279,-0.0837 0.12472,-0.12473 0.18709,-0.18709 0.0624,-0.0624 0.1137,-0.13817 0.18708,-0.18709 0.17091,-0.11394 0.45403,-0.1597 0.56127,-0.37418 0.0279,-0.0558 -0.0279,-0.13131 0,-0.18709 0.0179,-0.0358 0.71254,-0.73044 0.74836,-0.74835 0.0558,-0.0279 0.13131,0.0279 0.18709,0 0.57053,-0.28527 -0.34218,-0.14832 0.56126,-0.37418 0.121,-0.0302 0.25318,0.0303 0.37418,0 0.27057,-0.0676 0.48377,-0.28598 0.74835,-0.37418 0.17749,-0.0592 0.37977,0.0454 0.56127,0 0.13528,-0.0338 0.23744,-0.15974 0.37418,-0.18709 0.18345,-0.0367 0.37672,0.0308 0.56126,0 0.19453,-0.0324 0.36674,-0.15466 0.56127,-0.18708 0.30757,-0.0513 0.62363,0 0.93544,0 0.49891,0 0.99781,0 1.49671,0 1.62144,0 3.24287,0 4.86431,0 0.56126,0 1.12253,0 1.68379,0 0.18709,0 0.37631,0.0281 0.56127,0 0.405,-0.0616 0.78982,-0.26765 1.19947,-0.26765 0.42047,0 0.81793,0.19856 1.23268,0.26765 0.25526,0.0425 0.66143,0 0.93545,0 0.0624,0 0.1592,0.0558 0.18709,0 0.0558,-0.11156 -0.0558,-0.26262 0,-0.37418 0.0279,-0.0558 0.12472,0 0.18708,0 0.0624,0 0.24759,-0.0151 0.18709,0 -0.2011,0.0503 -0.40848,0.071 -0.61272,0.10653"
       id="path41"
       inkscape:connector-curvature="0" />
    <g
       id="g11829">
      <path
         sodipodi:nodetypes="cccc"
         inkscape:connector-curvature="0"
         id="path63"
         d="m 74.083331,227.14999 -6.350003,12.69999 v -10.58333 z"
         style="opacity:1;fill:#fafafa;fill-opacity:1;stroke:none;stroke-width:0.26458332;stroke-linecap:butt;stroke-linejoin:miter;stroke-miterlimit:2;stroke-dasharray:none;stroke-dashoffset:0;stroke-opacity:1" />
      <path
         sodipodi:nodetypes="cccc"
         inkscape:connector-curvature="0"
         id="path65"
         d="m 74.083331,227.14999 2.116667,14.81666 -8.466672,-2.11667 z"
         style="opacity:1;fill:#f5f5f5;fill-opacity:1;stroke:none;stroke-width:0.26458332;stroke-linecap:butt;stroke-linejoin:miter;stroke-miterlimit:2;stroke-dasharray:none;stroke-dashoffset:0;stroke-opacity:1" />
      <path
         sodipodi:nodetypes="cccc"
         inkscape:connector-curvature="0"
         id="path67"
         d="m 76.199998,241.96665 6.349999,-10.58333 -8.466666,-4.23333 z"
         style="opacity:1;fill:#fafafa;fill-opacity:1;stroke:none;stroke-width:0.26458332;stroke-linecap:butt;stroke-linejoin:miter;stroke-miterlimit:2;stroke-dasharray:none;stroke-dashoffset:0;stroke-opacity:1" />
      <path
         sodipodi:nodetypes="cccc"
         inkscape:connector-curvature="0"
         id="path69"
         d="m 82.549997,231.38331 8.466664,6.35001 2.116669,-10.58333 z"
         style="opacity:1;fill:#fafafa;fill-opacity:1;stroke:none;stroke-width:0.26458332;stroke-linecap:butt;stroke-linejoin:miter;stroke-miterlimit:2;stroke-dasharray:none;stroke-dashoffset:0;stroke-opacity:1" />
      <path
         sodipodi:nodetypes="cccc"
         inkscape:connector-curvature="0"
         id="path71"
         d="m 93.13333,227.14999 8.46666,12.69999 v -10.58332 z"
         style="opacity:1;fill:#eeeeee;fill-opacity:1;stroke:none;stroke-width:0.26458332;stroke-linecap:butt;stroke-linejoin:miter;stroke-miterlimit:2;stroke-dasharray:none;stroke-dashoffset:0;stroke-opacity:1" />
      <path
         sodipodi:nodetypes="cccc"
         inkscape:connector-curvature="0"
         id="path73"
         d="m 91.016661,237.73332 10.583329,2.11666 -8.46666,-12.69999 z"
         style="opacity:1;fill:#f5f5f5;fill-opacity:1;stroke:none;stroke-width:0.26458332;stroke-linecap:butt;stroke-linejoin:miter;stroke-miterlimit:2;stroke-dasharray:none;stroke-dashoffset:0;stroke-opacity:1" />
      <path
         sodipodi:nodetypes="cccc"
         inkscape:connector-curvature="0"
         id="path75"
         d="m 82.549997,231.38332 8.466664,6.35 -14.816663,4.23333 z"
         style="opacity:1;fill:#eeeeee;fill-opacity:1;stroke:none;stroke-width:0.26458332;stroke-linecap:butt;stroke-linejoin:miter;stroke-miterlimit:2;stroke-dasharray:none;stroke-dashoffset:0;stroke-opacity:1" />
      <path
         sodipodi:nodetypes="cccc"
         inkscape:connector-curvature="0"
         id="path77"
         d="m 67.733328,239.84998 -2.116667,12.7 10.583337,-10.58333 z"
         style="opacity:1;fill:#fafafa;fill-opacity:1;stroke:none;stroke-width:0.26458332;stroke-linecap:butt;stroke-linejoin:miter;stroke-miterlimit:2;stroke-dasharray:none;stroke-dashoffset:0;stroke-opacity:1" />
      <path
         sodipodi:nodetypes="cccc"
         inkscape:connector-curvature="0"
         id="path79"
         d="m 76.199998,241.96665 v 10.58334 l -10.583335,-1e-5 z"
         style="opacity:1;fill:#eeeeee;fill-opacity:1;stroke:none;stroke-width:0.26458332;stroke-linecap:butt;stroke-linejoin:miter;stroke-miterlimit:2;stroke-dasharray:none;stroke-dashoffset:0;stroke-opacity:1" />
      <path
         sodipodi:nodetypes="cccc"
         inkscape:connector-curvature="0"
         id="path81"
         d="m 76.199998,241.96665 8.466666,8.46667 -8.466666,2.11667 z"
         style="opacity:1;fill:#f5f5f5;fill-opacity:1;stroke:none;stroke-width:0.26458332;stroke-linecap:butt;stroke-linejoin:miter;stroke-miterlimit:2;stroke-dasharray:none;stroke-dashoffset:0;stroke-opacity:1" />
      <path
         sodipodi:nodetypes="cccc"
         inkscape:connector-curvature="0"
         id="path83"
         d="m 76.199998,241.96665 14.816663,-4.23333 -6.349997,12.7 z"
         style="opacity:1;fill:#fafafa;fill-opacity:1;stroke:none;stroke-width:0.26458332;stroke-linecap:butt;stroke-linejoin:miter;stroke-miterlimit:2;stroke-dasharray:none;stroke-dashoffset:0;stroke-opacity:1" />
      <path
         sodipodi:nodetypes="cccc"
         inkscape:connector-curvature="0"
         id="path85"
         d="m 84.666664,250.43332 8.466666,-4.23333 -2.116669,-8.46667 z"
         style="opacity:1;fill:#f5f5f5;fill-opacity:1;stroke:none;stroke-width:0.26458332;stroke-linecap:butt;stroke-linejoin:miter;stroke-miterlimit:2;stroke-dasharray:none;stroke-dashoffset:0;stroke-opacity:1" />
      <path
         sodipodi:nodetypes="cccc"
         inkscape:connector-curvature="0"
         id="path87"
         d="m 93.13333,246.19999 8.46666,-6.35001 -10.583329,-2.11666 z"
         style="opacity:1;fill:#fafafa;fill-opacity:1;stroke:none;stroke-width:0.26458332;stroke-linecap:butt;stroke-linejoin:miter;stroke-miterlimit:2;stroke-dasharray:none;stroke-dashoffset:0;stroke-opacity:1" />
      <path
         sodipodi:nodetypes="cccc"
         inkscape:connector-curvature="0"
         id="path89"
         d="m 93.13333,246.19999 6.34999,6.34999 2.11667,-12.7 z"
         style="opacity:1;fill:#eeeeee;fill-opacity:1;stroke:none;stroke-width:0.26458332;stroke-linecap:butt;stroke-linejoin:miter;stroke-miterlimit:2;stroke-dasharray:none;stroke-dashoffset:0;stroke-opacity:1" />
      <path
         sodipodi:nodetypes="cccc"
         inkscape:connector-curvature="0"
         id="path95"
         d="m 99.48332,252.54998 2.11667,10.58334 -8.46666,-2.11667 z"
         style="opacity:1;fill:#fafafa;fill-opacity:1;stroke:none;stroke-width:0.26458332;stroke-linecap:butt;stroke-linejoin:miter;stroke-miterlimit:2;stroke-dasharray:none;stroke-dashoffset:0;stroke-opacity:1" />
      <path
         sodipodi:nodetypes="cccc"
         inkscape:connector-curvature="0"
         id="path97"
         d="m 76.199998,252.54999 -8.466672,10.58333 -2.116663,-10.58334 z"
         style="opacity:1;fill:#f5f5f5;fill-opacity:1;stroke:none;stroke-width:0.26458332;stroke-linecap:butt;stroke-linejoin:miter;stroke-miterlimit:2;stroke-dasharray:none;stroke-dashoffset:0;stroke-opacity:1" />
      <path
         sodipodi:nodetypes="cccc"
         inkscape:connector-curvature="0"
         id="path99"
         d="m 76.199998,252.54999 -2.116667,8.46666 -6.350007,2.11667 z"
         style="opacity:1;fill:#eeeeee;fill-opacity:1;stroke:none;stroke-width:0.26458332;stroke-linecap:butt;stroke-linejoin:miter;stroke-miterlimit:2;stroke-dasharray:none;stroke-dashoffset:0;stroke-opacity:1" />
      <path
         sodipodi:nodetypes="cccc"
         inkscape:connector-curvature="0"
         id="path4595"
         d="m 76.199998,252.54999 6.349999,12.7 -8.466666,-4.23334 z"
         style="opacity:1;fill:#f5f5f5;fill-opacity:1;stroke:none;stroke-width:0.26458332;stroke-linecap:butt;stroke-linejoin:miter;stroke-miterlimit:2;stroke-dasharray:none;stroke-dashoffset:0;stroke-opacity:1" />
      <path
         sodipodi:nodetypes="cccc"
         inkscape:connector-curvature="0"
         id="path4597"
         d="m 82.549997,265.24999 2.116667,-14.81667 8.466666,10.58333 z"
         style="opacity:1;fill:#fafafa;fill-opacity:1;stroke:none;stroke-width:0.26458332;stroke-linecap:butt;stroke-linejoin:miter;stroke-miterlimit:2;stroke-dasharray:none;stroke-dashoffset:0;stroke-opacity:1" />
      <path
         sodipodi:nodetypes="cccc"
         inkscape:connector-curvature="0"
         id="path4599"
         d="m 84.666664,250.43332 -8.466666,2.11667 6.349999,12.7 z"
         style="opacity:1;fill:#eeeeee;fill-opacity:1;stroke:none;stroke-width:0.26458332;stroke-linecap:butt;stroke-linejoin:miter;stroke-miterlimit:2;stroke-dasharray:none;stroke-dashoffset:0;stroke-opacity:1" />
      <path
         sodipodi:nodetypes="cccc"
         inkscape:connector-curvature="0"
         id="path4601"
         d="m 84.666664,250.43332 14.816666,2.11666 -6.35,-6.34999 z"
         style="opacity:1;fill:#fafafa;fill-opacity:1;stroke:none;stroke-width:0.26458332;stroke-linecap:butt;stroke-linejoin:miter;stroke-miterlimit:2;stroke-dasharray:none;stroke-dashoffset:0;stroke-opacity:1" />
      <path
         sodipodi:nodetypes="cccc"
         inkscape:connector-curvature="0"
         id="path4603"
         d="m 84.666664,250.43332 8.466666,10.58333 6.34999,-8.46667 z"
         style="opacity:1;fill:#f5f5f5;fill-opacity:1;stroke:none;stroke-width:0.26458332;stroke-linecap:butt;stroke-linejoin:miter;stroke-miterlimit:2;stroke-dasharray:none;stroke-dashoffset:0;stroke-opacity:1" />
    </g>
    <g
       id="g12620">
      <path
         style="opacity:1;fill:#fafafa;fill-opacity:1;stroke:none;stroke-width:0.26458332;stroke-linecap:butt;stroke-linejoin:miter;stroke-miterlimit:2;stroke-dasharray:none;stroke-dashoffset:0;stroke-opacity:1"
         d="m 107.95,227.14999 -6.35001,12.69999 v -10.58333 z"
         id="path11831"
         inkscape:connector-curvature="0"
         sodipodi:nodetypes="cccc" />
      <path
         style="opacity:1;fill:#f5f5f5;fill-opacity:1;stroke:none;stroke-width:0.26458332;stroke-linecap:butt;stroke-linejoin:miter;stroke-miterlimit:2;stroke-dasharray:none;stroke-dashoffset:0;stroke-opacity:1"
         d="m 107.95,227.14999 2.11666,14.81666 -8.46667,-2.11667 z"
         id="path11833"
         inkscape:connector-curvature="0"
         sodipodi:nodetypes="cccc" />
      <path
         style="opacity:1;fill:#fafafa;fill-opacity:1;stroke:none;stroke-width:0.26458332;stroke-linecap:butt;stroke-linejoin:miter;stroke-miterlimit:2;stroke-dasharray:none;stroke-dashoffset:0;stroke-opacity:1"
         d="m 110.06666,241.96665 6.35,-10.58333 -8.46666,-4.23333 z"
         id="path11835"
         inkscape:connector-curvature="0"
         sodipodi:nodetypes="cccc" />
      <path
         style="opacity:1;fill:#fafafa;fill-opacity:1;stroke:none;stroke-width:0.26458332;stroke-linecap:butt;stroke-linejoin:miter;stroke-miterlimit:2;stroke-dasharray:none;stroke-dashoffset:0;stroke-opacity:1"
         d="m 101.59999,239.84998 -2.116664,12.7 10.583334,-10.58333 z"
         id="path11845"
         inkscape:connector-curvature="0"
         sodipodi:nodetypes="cccc" />
      <path
         style="opacity:1;fill:#eeeeee;fill-opacity:1;stroke:none;stroke-width:0.26458332;stroke-linecap:butt;stroke-linejoin:miter;stroke-miterlimit:2;stroke-dasharray:none;stroke-dashoffset:0;stroke-opacity:1"
         d="m 110.06666,241.96665 v 10.58334 l -10.583332,-1e-5 z"
         id="path11847"
         inkscape:connector-curvature="0"
         sodipodi:nodetypes="cccc" />
      <path
         style="opacity:1;fill:#f5f5f5;fill-opacity:1;stroke:none;stroke-width:0.26458332;stroke-linecap:butt;stroke-linejoin:miter;stroke-miterlimit:2;stroke-dasharray:none;stroke-dashoffset:0;stroke-opacity:1"
         d="m 110.06666,241.96665 8.46667,8.46667 -8.46667,2.11667 z"
         id="path11849"
         inkscape:connector-curvature="0"
         sodipodi:nodetypes="cccc" />
      <path
         style="opacity:1;fill:#f5f5f5;fill-opacity:1;stroke:none;stroke-width:0.26458332;stroke-linecap:butt;stroke-linejoin:miter;stroke-miterlimit:2;stroke-dasharray:none;stroke-dashoffset:0;stroke-opacity:1"
         d="m 110.06666,252.54999 -8.46667,10.58333 -2.116662,-10.58334 z"
         id="path11861"
         inkscape:connector-curvature="0"
         sodipodi:nodetypes="cccc" />
      <path
         style="opacity:1;fill:#eeeeee;fill-opacity:1;stroke:none;stroke-width:0.26458332;stroke-linecap:butt;stroke-linejoin:miter;stroke-miterlimit:2;stroke-dasharray:none;stroke-dashoffset:0;stroke-opacity:1"
         d="m 110.06666,252.54999 -2.11666,8.46666 -6.35001,2.11667 z"
         id="path11863"
         inkscape:connector-curvature="0"
         sodipodi:nodetypes="cccc" />
      <path
         style="opacity:1;fill:#f5f5f5;fill-opacity:1;stroke:none;stroke-width:0.26458332;stroke-linecap:butt;stroke-linejoin:miter;stroke-miterlimit:2;stroke-dasharray:none;stroke-dashoffset:0;stroke-opacity:1"
         d="m 110.06666,252.54999 6.35,12.7 -8.46666,-4.23334 z"
         id="path11865"
         inkscape:connector-curvature="0"
         sodipodi:nodetypes="cccc" />
      <path
         style="opacity:1;fill:#eeeeee;fill-opacity:1;stroke:none;stroke-width:0.26458332;stroke-linecap:butt;stroke-linejoin:miter;stroke-miterlimit:2;stroke-dasharray:none;stroke-dashoffset:0;stroke-opacity:1"
         d="m 118.53333,250.43332 -8.46667,2.11667 6.35,12.7 z"
         id="path11869"
         inkscape:connector-curvature="0"
         sodipodi:nodetypes="cccc" />
    </g>
    <g
       id="g12300">
      <path
         style="opacity:1;fill:#fafafa;fill-opacity:1;stroke:none;stroke-width:0.26458332;stroke-linecap:butt;stroke-linejoin:miter;stroke-miterlimit:2;stroke-dasharray:none;stroke-dashoffset:0;stroke-opacity:1"
         d="m 107.95,261.01665 -6.35001,12.69999 v -10.58333 z"
         id="path12255"
         inkscape:connector-curvature="0"
         sodipodi:nodetypes="cccc" />
      <path
         style="opacity:1;fill:#f5f5f5;fill-opacity:1;stroke:none;stroke-width:0.26458332;stroke-linecap:butt;stroke-linejoin:miter;stroke-miterlimit:2;stroke-dasharray:none;stroke-dashoffset:0;stroke-opacity:1"
         d="m 107.95,261.01665 2.11666,14.81666 -8.46667,-2.11667 z"
         id="path12257"
         inkscape:connector-curvature="0"
         sodipodi:nodetypes="cccc" />
      <path
         style="opacity:1;fill:#fafafa;fill-opacity:1;stroke:none;stroke-width:0.26458332;stroke-linecap:butt;stroke-linejoin:miter;stroke-miterlimit:2;stroke-dasharray:none;stroke-dashoffset:0;stroke-opacity:1"
         d="m 110.06666,275.83331 6.35,-10.58333 -8.46666,-4.23333 z"
         id="path12259"
         inkscape:connector-curvature="0"
         sodipodi:nodetypes="cccc" />
    </g>
    <g
       id="g12382">
      <path
         style="opacity:1;fill:#fafafa;fill-opacity:1;stroke:none;stroke-width:0.26458332;stroke-linecap:butt;stroke-linejoin:miter;stroke-miterlimit:2;stroke-dasharray:none;stroke-dashoffset:0;stroke-opacity:1"
         d="m 99.48332,218.68331 2.11667,10.58334 -8.46666,-2.11667 z"
         id="path12335"
         inkscape:connector-curvature="0"
         sodipodi:nodetypes="cccc" />
      <path
         style="opacity:1;fill:#f5f5f5;fill-opacity:1;stroke:none;stroke-width:0.26458332;stroke-linecap:butt;stroke-linejoin:miter;stroke-miterlimit:2;stroke-dasharray:none;stroke-dashoffset:0;stroke-opacity:1"
         d="m 76.199998,218.68332 -8.466672,10.58333 -2.116663,-10.58334 z"
         id="path12337"
         inkscape:connector-curvature="0"
         sodipodi:nodetypes="cccc" />
      <path
         style="opacity:1;fill:#eeeeee;fill-opacity:1;stroke:none;stroke-width:0.26458332;stroke-linecap:butt;stroke-linejoin:miter;stroke-miterlimit:2;stroke-dasharray:none;stroke-dashoffset:0;stroke-opacity:1"
         d="m 76.199998,218.68332 -2.116667,8.46666 -6.350007,2.11667 z"
         id="path12339"
         inkscape:connector-curvature="0"
         sodipodi:nodetypes="cccc" />
      <path
         style="opacity:1;fill:#f5f5f5;fill-opacity:1;stroke:none;stroke-width:0.26458332;stroke-linecap:butt;stroke-linejoin:miter;stroke-miterlimit:2;stroke-dasharray:none;stroke-dashoffset:0;stroke-opacity:1"
         d="m 76.199998,218.68332 6.349999,12.7 -8.466666,-4.23334 z"
         id="path12341"
         inkscape:connector-curvature="0"
         sodipodi:nodetypes="cccc" />
      <path
         style="opacity:1;fill:#fafafa;fill-opacity:1;stroke:none;stroke-width:0.26458332;stroke-linecap:butt;stroke-linejoin:miter;stroke-miterlimit:2;stroke-dasharray:none;stroke-dashoffset:0;stroke-opacity:1"
         d="m 82.549997,231.38332 2.116667,-14.81667 8.466666,10.58333 z"
         id="path12343"
         inkscape:connector-curvature="0"
         sodipodi:nodetypes="cccc" />
      <path
         style="opacity:1;fill:#eeeeee;fill-opacity:1;stroke:none;stroke-width:0.26458332;stroke-linecap:butt;stroke-linejoin:miter;stroke-miterlimit:2;stroke-dasharray:none;stroke-dashoffset:0;stroke-opacity:1"
         d="m 84.666664,216.56665 -8.466666,2.11667 6.349999,12.7 z"
         id="path12345"
         inkscape:connector-curvature="0"
         sodipodi:nodetypes="cccc" />
      <path
         style="opacity:1;fill:#f5f5f5;fill-opacity:1;stroke:none;stroke-width:0.26458332;stroke-linecap:butt;stroke-linejoin:miter;stroke-miterlimit:2;stroke-dasharray:none;stroke-dashoffset:0;stroke-opacity:1"
         d="m 84.666664,216.56665 8.466666,10.58333 6.34999,-8.46667 z"
         id="path12349"
         inkscape:connector-curvature="0"
         sodipodi:nodetypes="cccc" />
    </g>
    <g
       id="g12459">
      <path
         style="opacity:1;fill:#fafafa;fill-opacity:1;stroke:none;stroke-width:0.26458332;stroke-linecap:butt;stroke-linejoin:miter;stroke-miterlimit:2;stroke-dasharray:none;stroke-dashoffset:0;stroke-opacity:1"
         d="m 74.083331,261.01666 -6.350003,12.69999 v -10.58333 z"
         id="path12384"
         inkscape:connector-curvature="0"
         sodipodi:nodetypes="cccc" />
      <path
         style="opacity:1;fill:#f5f5f5;fill-opacity:1;stroke:none;stroke-width:0.26458332;stroke-linecap:butt;stroke-linejoin:miter;stroke-miterlimit:2;stroke-dasharray:none;stroke-dashoffset:0;stroke-opacity:1"
         d="m 74.083331,261.01666 2.116667,14.81666 -8.466672,-2.11667 z"
         id="path12386"
         inkscape:connector-curvature="0"
         sodipodi:nodetypes="cccc" />
      <path
         style="opacity:1;fill:#fafafa;fill-opacity:1;stroke:none;stroke-width:0.26458332;stroke-linecap:butt;stroke-linejoin:miter;stroke-miterlimit:2;stroke-dasharray:none;stroke-dashoffset:0;stroke-opacity:1"
         d="m 76.199998,275.83332 6.349999,-10.58333 -8.466666,-4.23333 z"
         id="path12388"
         inkscape:connector-curvature="0"
         sodipodi:nodetypes="cccc" />
      <path
         style="opacity:1;fill:#fafafa;fill-opacity:1;stroke:none;stroke-width:0.26458332;stroke-linecap:butt;stroke-linejoin:miter;stroke-miterlimit:2;stroke-dasharray:none;stroke-dashoffset:0;stroke-opacity:1"
         d="m 82.549997,265.24998 8.466664,6.35001 2.116669,-10.58333 z"
         id="path12390"
         inkscape:connector-curvature="0"
         sodipodi:nodetypes="cccc" />
      <path
         style="opacity:1;fill:#eeeeee;fill-opacity:1;stroke:none;stroke-width:0.26458332;stroke-linecap:butt;stroke-linejoin:miter;stroke-miterlimit:2;stroke-dasharray:none;stroke-dashoffset:0;stroke-opacity:1"
         d="m 93.13333,261.01666 8.46666,12.69999 v -10.58332 z"
         id="path12392"
         inkscape:connector-curvature="0"
         sodipodi:nodetypes="cccc" />
      <path
         style="opacity:1;fill:#f5f5f5;fill-opacity:1;stroke:none;stroke-width:0.26458332;stroke-linecap:butt;stroke-linejoin:miter;stroke-miterlimit:2;stroke-dasharray:none;stroke-dashoffset:0;stroke-opacity:1"
         d="m 91.016661,271.59999 10.583329,2.11666 -8.46666,-12.69999 z"
         id="path12394"
         inkscape:connector-curvature="0"
         sodipodi:nodetypes="cccc" />
      <path
         style="opacity:1;fill:#eeeeee;fill-opacity:1;stroke:none;stroke-width:0.26458332;stroke-linecap:butt;stroke-linejoin:miter;stroke-miterlimit:2;stroke-dasharray:none;stroke-dashoffset:0;stroke-opacity:1"
         d="m 82.549997,265.24999 8.466664,6.35 -14.816663,4.23333 z"
         id="path12396"
         inkscape:connector-curvature="0"
         sodipodi:nodetypes="cccc" />
    </g>
    <g
       id="g12537">
      <path
         style="opacity:1;fill:#eeeeee;fill-opacity:1;stroke:none;stroke-width:0.26458332;stroke-linecap:butt;stroke-linejoin:miter;stroke-miterlimit:2;stroke-dasharray:none;stroke-dashoffset:0;stroke-opacity:1"
         d="m 59.266664,227.14999 8.46666,12.69999 v -10.58332 z"
         id="path12469"
         inkscape:connector-curvature="0"
         sodipodi:nodetypes="cccc" />
      <path
         style="opacity:1;fill:#f5f5f5;fill-opacity:1;stroke:none;stroke-width:0.26458332;stroke-linecap:butt;stroke-linejoin:miter;stroke-miterlimit:2;stroke-dasharray:none;stroke-dashoffset:0;stroke-opacity:1"
         d="m 57.149995,237.73332 10.583329,2.11666 -8.46666,-12.69999 z"
         id="path12471"
         inkscape:connector-curvature="0"
         sodipodi:nodetypes="cccc" />
      <path
         style="opacity:1;fill:#f5f5f5;fill-opacity:1;stroke:none;stroke-width:0.26458332;stroke-linecap:butt;stroke-linejoin:miter;stroke-miterlimit:2;stroke-dasharray:none;stroke-dashoffset:0;stroke-opacity:1"
         d="m 50.799998,250.43332 8.466666,-4.23333 -2.116669,-8.46667 z"
         id="path12483"
         inkscape:connector-curvature="0"
         sodipodi:nodetypes="cccc" />
      <path
         style="opacity:1;fill:#fafafa;fill-opacity:1;stroke:none;stroke-width:0.26458332;stroke-linecap:butt;stroke-linejoin:miter;stroke-miterlimit:2;stroke-dasharray:none;stroke-dashoffset:0;stroke-opacity:1"
         d="m 59.266664,246.19999 8.46666,-6.35001 -10.583329,-2.11666 z"
         id="path12485"
         inkscape:connector-curvature="0"
         sodipodi:nodetypes="cccc" />
      <path
         style="opacity:1;fill:#eeeeee;fill-opacity:1;stroke:none;stroke-width:0.26458332;stroke-linecap:butt;stroke-linejoin:miter;stroke-miterlimit:2;stroke-dasharray:none;stroke-dashoffset:0;stroke-opacity:1"
         d="m 59.266664,246.19999 6.34999,6.34999 2.11667,-12.7 z"
         id="path12487"
         inkscape:connector-curvature="0"
         sodipodi:nodetypes="cccc" />
      <path
         style="opacity:1;fill:#fafafa;fill-opacity:1;stroke:none;stroke-width:0.26458332;stroke-linecap:butt;stroke-linejoin:miter;stroke-miterlimit:2;stroke-dasharray:none;stroke-dashoffset:0;stroke-opacity:1"
         d="m 65.616654,252.54998 2.11667,10.58334 -8.46666,-2.11667 z"
         id="path12489"
         inkscape:connector-curvature="0"
         sodipodi:nodetypes="cccc" />
      <path
         style="opacity:1;fill:#fafafa;fill-opacity:1;stroke:none;stroke-width:0.26458332;stroke-linecap:butt;stroke-linejoin:miter;stroke-miterlimit:2;stroke-dasharray:none;stroke-dashoffset:0;stroke-opacity:1"
         d="m 50.799998,250.43332 14.816666,2.11666 -6.35,-6.34999 z"
         id="path12501"
         inkscape:connector-curvature="0"
         sodipodi:nodetypes="cccc" />
      <path
         style="opacity:1;fill:#f5f5f5;fill-opacity:1;stroke:none;stroke-width:0.26458332;stroke-linecap:butt;stroke-linejoin:miter;stroke-miterlimit:2;stroke-dasharray:none;stroke-dashoffset:0;stroke-opacity:1"
         d="m 50.799998,250.43332 8.466666,10.58333 6.34999,-8.46667 z"
         id="path12503"
         inkscape:connector-curvature="0"
         sodipodi:nodetypes="cccc" />
    </g>
    <g
       id="g12596">
      <path
         sodipodi:nodetypes="cccc"
         inkscape:connector-curvature="0"
         id="path12549"
         d="m 65.616665,218.68332 2.11667,10.58334 -8.46666,-2.11667 z"
         style="opacity:1;fill:#fafafa;fill-opacity:1;stroke:none;stroke-width:0.26458332;stroke-linecap:butt;stroke-linejoin:miter;stroke-miterlimit:2;stroke-dasharray:none;stroke-dashoffset:0;stroke-opacity:1" />
    </g>
    <g
       id="g12585">
      <path
         style="opacity:1;fill:#eeeeee;fill-opacity:1;stroke:none;stroke-width:0.26458332;stroke-linecap:butt;stroke-linejoin:miter;stroke-miterlimit:2;stroke-dasharray:none;stroke-dashoffset:0;stroke-opacity:1"
         d="m 59.266671,261.01665 8.46666,12.69999 v -10.58332 z"
         id="path12557"
         inkscape:connector-curvature="0"
         sodipodi:nodetypes="cccc" />
      <path
         style="opacity:1;fill:#f5f5f5;fill-opacity:1;stroke:none;stroke-width:0.26458332;stroke-linecap:butt;stroke-linejoin:miter;stroke-miterlimit:2;stroke-dasharray:none;stroke-dashoffset:0;stroke-opacity:1"
         d="m 57.150002,271.59998 10.583329,2.11666 -8.46666,-12.69999 z"
         id="path12559"
         inkscape:connector-curvature="0"
         sodipodi:nodetypes="cccc" />
    </g>
    <g
       id="g12627">
      <g
         id="g12305">
        <path
           style="opacity:1;fill:#f5f5f5;fill-opacity:1;stroke:none;stroke-width:0.26458332;stroke-linecap:butt;stroke-linejoin:miter;stroke-miterlimit:2;stroke-dasharray:none;stroke-dashoffset:0;stroke-opacity:1"
           d="m 110.06666,218.68333 -8.46667,10.58333 -2.116665,-10.58334 z"
           id="path12245"
           inkscape:connector-curvature="0"
           sodipodi:nodetypes="cccc" />
        <path
           style="opacity:1;fill:#eeeeee;fill-opacity:1;stroke:none;stroke-width:0.26458332;stroke-linecap:butt;stroke-linejoin:miter;stroke-miterlimit:2;stroke-dasharray:none;stroke-dashoffset:0;stroke-opacity:1"
           d="m 110.06666,218.68333 -2.11666,8.46666 -6.35001,2.11667 z"
           id="path12247"
           inkscape:connector-curvature="0"
           sodipodi:nodetypes="cccc" />
        <path
           style="opacity:1;fill:#f5f5f5;fill-opacity:1;stroke:none;stroke-width:0.26458332;stroke-linecap:butt;stroke-linejoin:miter;stroke-miterlimit:2;stroke-dasharray:none;stroke-dashoffset:0;stroke-opacity:1"
           d="m 110.06666,218.68333 6.35,12.7 -8.46666,-4.23334 z"
           id="path12249"
           inkscape:connector-curvature="0"
           sodipodi:nodetypes="cccc" />
      </g>
      <path
         sodipodi:nodetypes="cccc"
         inkscape:connector-curvature="0"
         id="path12608"
         d="m 118.53333,216.56665 -8.46667,2.11667 6.35,12.7 z"
         style="opacity:1;fill:#eeeeee;fill-opacity:1;stroke:none;stroke-width:0.26458332;stroke-linecap:butt;stroke-linejoin:miter;stroke-miterlimit:2;stroke-dasharray:none;stroke-dashoffset:0;stroke-opacity:1" />
    </g>
  </g>
  <g
     inkscape:groupmode="layer"
     id="layer2"
     inkscape:label="Layer 2" />
</svg>
